<svg xmlns="http://www.w3.org/2000/svg" width="190" height="45" viewBox="0 0 190 45"><path d="M0 .775h6.888v35.016H0V.775zm25.749 7.626c1.764-.212 3.562-.166 5.331 0 1.745.163 3.5.869 5.001 1.641 1.534.787 2.57 1.679 3.445 2.87a10.998 10.998 0 0 1 1.886 4.101c.2.861.4 1.738.41 2.623l.164 16.155H35.59V22.096c-.246-1.312-.535-2.617-.738-3.936-.125-.814-.39-1.76-1.23-2.379-.738-.543-1.576-.985-2.46-1.229-1.222-.338-2.504-.479-3.772-.492a19.687 19.687 0 0 0-4.1.41c-1.102.222-2.239.483-3.199 1.065l-2.296 1.394-1.066.657v18.205h-6.314V8.812h6.314v2.378c.902-.465 1.737-1.094 2.707-1.395 2.058-.636 4.173-1.138 6.313-1.394zm135.96 11.482h20.911c-.191-.493-.263-1.052-.574-1.477a9.064 9.064 0 0 0-1.885-1.887c-.833-.624-1.736-1.184-2.707-1.559a13.866 13.866 0 0 0-3.444-.818 17.798 17.798 0 0 0-3.854 0 13.442 13.442 0 0 0-3.28.737c-.964.355-1.897.843-2.707 1.476-.716.561-1.434 1.218-1.804 2.051l-.656 1.477zM143.668 8.812l-19.927 35.836h-7.134l5.166-9.185-14.35-26.651h7.38l10.824 20.255 10.907-20.255h7.134zm1.805-8.037h6.56v35.097h-6.56V.775zm19.762 8.857c2.248-.558 4.573-.931 6.888-.902 2.297.027 4.571.543 6.807 1.065 2.096.491 3.716 1.611 5.167 2.87a13.605 13.605 0 0 1 3.69 5.085c.973 2.3 1.804 4.592 2.214 7.217H161.71c.41.983.875 1.972 1.476 2.624a13.092 13.092 0 0 0 2.459 2.049c.922.601 2.047.929 3.035 1.067 1.145.16 2.288.408 3.443.408 1.782 0 3.566-.164 5.331-.408a19.921 19.921 0 0 0 3.526-.821c.916-.306 1.783-.754 2.624-1.229l1.886-1.065 3.28 4.346a47.012 47.012 0 0 1-3.116 1.887c-1.193.662-2.354 1.226-3.608 1.557-1.43.379-2.875.744-4.346.902-1.849.198-3.716.141-5.577.165-2.623.031-4.898-.477-7.297-1.231-2.03-.64-3.788-1.458-5.331-2.871-1.327-1.212-2.474-2.618-3.116-4.262-.669-1.718-1.066-3.691-1.066-5.414.083-2.049.508-4.011 1.313-5.74.835-1.796 1.898-3.276 3.28-4.427 1.574-1.316 3.365-2.385 5.329-2.872zM46.905 10.78c.172 1.721.735 3.286 1.886 4.592 1.313 1.487 2.808 2.404 4.51 3.034 2.071.765 4.096 1.437 6.15 1.639 1.828.181 3.663.28 5.495.411 1.995.143 4.006.129 5.986.41 1.503.213 2.967.652 4.428 1.065 1.247.353 2.062 1.222 2.706 2.214.421.648.514 1.456.246 2.297-.308.966-.779 1.854-1.477 2.378-.945.708-1.854 1.341-3.115 1.641-1.399.331-2.828.587-4.264.654a42.68 42.68 0 0 1-6.151-.162c-2.151-.211-4.288-.59-6.396-1.067-1.645-.371-3.384-.621-4.838-1.476l-3.772-2.214-3.28 5.33c1.586.766 3.131 1.62 4.756 2.297 1.66.689 3.336 1.38 5.084 1.803 1.878.456 3.815.652 5.74.821 2.181.188 4.375.347 6.561.246a52.876 52.876 0 0 0 7.462-.902c2.09-.403 3.876-1.355 5.658-2.379 1.5-.862 2.589-2.199 3.526-3.689.873-1.389 1.175-2.866 1.066-4.511-.136-2.047-.929-3.748-2.296-5.329-1.257-1.454-2.645-2.71-4.674-3.363a43.773 43.773 0 0 0-6.561-1.559c-2.112-.333-4.266-.307-6.396-.491-1.014-.088-2.024-.21-3.034-.327-1.313-.155-2.638-.242-3.936-.493-1.25-.241-2.256-.685-3.117-1.394-.701-.578-1.891-.98-1.968-1.887-.072-.851.988-1.416 1.64-1.968.788-.666 1.662-1.267 2.624-1.64 1.255-.486 2.606-.692 3.936-.903 1.274-.2 2.565-.327 3.854-.327 1.78 0 3.568.075 5.33.327 1.477.213 2.922.625 4.347 1.067 1.313.407 2.644.821 3.854 1.476l3.034 1.641 3.28-4.593c-1.23-.655-2.421-1.393-3.69-1.969-1.387-.629-2.798-1.226-4.265-1.64a35.893 35.893 0 0 0-5.33-1.065C69.33.504 67.134.3 64.944.364c-2.419.072-4.824.454-7.217.821-2.066.316-4.155.881-5.904 1.887-1.538.883-2.927 2.011-3.854 3.443-.876 1.357-1.219 2.706-1.064 4.265zm38.788-1.968h4.51V1.841h6.561v6.971h8.528v5.331h-8.528c0 5.192-.678 10.431 0 15.58.11.835 1.226.841 1.968.984.816.156 1.629.379 2.46.408.634.026 1.262-.137 1.886-.246.471-.081.923-.248 1.394-.327l.492-.081.328-.329h.246l1.395 5.494-.821.165c-.656.137-1.308.287-1.968.41-.817.15-1.635.306-2.459.408-.898.115-1.803.304-2.707.246-1.247-.079-2.478-.356-3.69-.654-1.007-.25-1.96-.754-2.624-1.559-.627-.76-1.513-1.484-1.641-2.46l-.492-3.772-.329-14.268h-4.51v-5.33h.001z" fill-rule="evenodd" clip-rule="evenodd" fill="#DF463B"/></svg>