<svg xmlns="http://www.w3.org/2000/svg" width="219" height="54" viewBox="0 0 219 54" overflow="visible"><path fill="#1D1D1B" d="M12.15 9.912V5.886h-.016l-1.256 4.026h-.821L8.801 5.886h-.016v4.026H7.781v-5.63h1.491l1.203 3.987h.015l1.203-3.987h1.477v5.63zm4.846-4.421h-.014l-.693 2.245h1.398l-.691-2.245zm1.355 4.421l-.388-1.271h-1.947l-.389 1.271h-1.12l1.858-5.63h1.248l1.855 5.63h-1.117zm4.597-4.681h-1.034v1.576h1.057c.621 0 .982-.206.982-.782 0-.556-.32-.794-1.005-.794m1.011 2.306l1.043 2.375h-1.179l-.952-2.206h-.957v2.206h-1.106V4.281h2.17c1.538 0 2.069.753 2.069 1.758 0 .791-.448 1.264-1.088 1.498m4.688-2.274v4.649h-1.104V5.263h-1.582v-.981h4.27v.981zm6.195 4.649V7.485h-2.123v2.427h-1.104v-5.63h1.104v2.221h2.123V4.282h1.103v5.63zm5.085-4.421h-.017l-.693 2.245h1.4l-.69-2.245zm1.353 4.421l-.389-1.271h-1.948l-.387 1.271h-1.12l1.856-5.63h1.25l1.855 5.63H41.28zm6.118.107c-1.225 0-1.828-.532-2.154-1.294l.937-.373c.243.466.593.77 1.248.77.687 0 .99-.266.99-.716 0-.456-.351-.64-1.089-.868-1.156-.365-1.941-.661-1.941-1.764 0-1.006.846-1.6 1.973-1.6 1.064 0 1.666.457 1.985 1.035l-.875.45c-.28-.365-.616-.586-1.096-.586-.655 0-.907.265-.907.607 0 .396.262.54 1.051.784 1.43.426 1.979.875 1.979 1.826 0 .953-.708 1.729-2.101 1.729m5.555-4.756v4.649H51.85V5.263h-1.581v-.981h4.268v.981zm2.817 4.649v-5.63h3.722v.974h-2.618v1.209h1.733v.967h-1.733v1.506h2.654v.974zm10.045 0h-.83L63.92 5.955h-.015l-1.067 3.957h-.813l-1.339-5.63h1.074l.728 3.553h.016l.944-3.553h.959l.944 3.553h.015l.73-3.553h1.057zm4.308-4.421h-.017l-.692 2.245h1.399l-.69-2.245zm1.354 4.421l-.387-1.271h-1.949l-.389 1.271h-1.117l1.855-5.63h1.248l1.857 5.63h-1.118zm4.595-4.681h-1.035v1.576h1.059c.625 0 .982-.206.982-.782 0-.556-.32-.794-1.006-.794m1.013 2.306l1.042 2.375h-1.18l-.949-2.206h-.961v2.206h-1.103V4.281h2.168c1.538 0 2.071.753 2.071 1.758.001.791-.448 1.264-1.088 1.498m4.841-2.274v4.649H80.82V5.263h-1.58v-.981h4.267v.981z"/><path fill="#E40053" d="M30.042 42.188h-4.317L19.559 20.49h-.113l-6.167 21.698H9.018L0 12.264h5.415l5.79 21.234h.112l6.062-21.234h4.315l6.105 21.234h.112l5.778-21.228 5.423-.006zm34.8-15.304c0-7.794-4.135-14.798-12.713-14.798-7.455 0-12.797 5.827-12.797 15.303 0 10.764 6.393 15.417 13.176 15.417 5.72 0 9.308-2.523 12.055-6.277l-3.532-2.747c-2.299 3.082-4.709 4.652-8.297 4.652-4.542 0-7.683-3.702-7.851-10.204h19.903c.056-.225.056-1.066.056-1.346m-5.383-2.413H45.051c.729-5.325 3.375-8.184 7.076-8.184 4.371 0 6.772 3.084 7.332 8.184m35.89 17.717c-.673-1.682-1.009-4.595-1.009-8.017V0h-5.495v15.896c-2.691-2.355-5.632-3.757-9.277-3.757-6.11 0-11.467 4.82-11.467 15.306 0 10.541 5.886 15.362 11.942 15.362 3.924 0 6.672-1.907 8.802-4.094.056 1.233.336 2.411.674 3.476h5.83zm-6.504-7.625c-2.636 2.467-4.765 3.702-7.794 3.702-4.204 0-7.4-3.813-7.4-10.821 0-7.065 2.93-10.764 7.135-10.764 2.69 0 5.368 1.177 8.06 3.811v14.072zm36.082 7.625c-.673-1.682-1.008-4.595-1.008-8.017V0h-5.496v15.896c-2.689-2.355-5.156-3.757-8.8-3.757-6.111 0-11.941 4.82-11.941 15.306 0 10.541 5.886 15.362 11.941 15.362 3.926 0 6.668-1.907 8.8-4.094.058 1.233.337 2.411.675 3.476h5.829zm-6.504-7.625c-2.634 2.467-4.763 3.702-7.793 3.702-4.202 0-7.399-3.813-7.399-10.821 0-7.065 3.141-10.764 7.344-10.764 2.692 0 5.159 1.177 7.849 3.811v14.072zm10.878-21.808h5.551v29.434h-5.551zm29.124 29.433V21.164c0-2.858-1.009-4.596-4.203-4.596-3.028 0-5.607 1.568-8.805 4.596v21.024h-5.494V12.755h5.494v4.316c2.357-2.186 5.776-4.934 10.654-4.934 5.326 0 7.85 3.028 7.85 8.074v21.977h-5.496zm48.911.618c-5.941 0-9.754-2.467-11.941-5.213l3.645-3.084c1.906 2.241 4.708 3.98 8.354 3.98 4.429 0 6.391-1.626 6.391-4.093 0-2.749-1.85-4.037-7.23-5.271-6.897-1.626-10.148-3.588-10.148-8.858 0-4.261 3.979-8.13 10.764-8.13 5.326 0 8.634 1.962 10.821 4.205l-3.197 3.588c-2.187-2.242-4.483-3.475-7.734-3.475-3.59 0-5.327 1.57-5.327 3.419 0 2.3 1.401 3.419 6.277 4.54 7.233 1.74 11.158 3.815 11.158 9.421-.002 5.046-4.039 8.971-11.833 8.971m-40.027-20.184c0 3.623 1.693 6.633 4.746 8.513-2.506 1.35-3.792 2.931-3.792 4.72 0 1.562.843 2.766 2.53 3.688-3.166 1.271-4.997 3.484-4.997 6.121 0 5.06 5.035 7.844 14.177 7.844 9.012 0 14.179-3.225 14.179-8.851 0-4.557-3.315-7.119-9.852-7.618l-7.176-.616c-3.191-.296-3.773-.838-3.773-1.802 0-.794.622-1.536 1.794-2.148 1.252.45 2.736.685 4.212.685 6.044 0 12.159-3.619 12.159-10.534 0-1.86-.498-3.641-1.409-5.178 1.816-.036 3.653-.691 5.465-1.979l.101-.072-3.032-3.03-.07.049c-1.426.948-2.532 1.302-4.085 1.302-1.09 0-2.033-.123-2.729-.354l-2.043-.661c-1.189-.416-2.818-.665-4.356-.665-5.988-.003-12.049 3.635-12.049 10.586m3.689 22.428c0-1.904 1.403-3.48 3.852-4.331.001.012 1.186.174 1.186.174l6.677.562c4.63.385 6.351 1.42 6.351 3.818 0 2.644-3.128 4.1-8.809 4.1-6.055-.001-9.257-1.496-9.257-4.323m1.681-22.428c0-4.057 2.622-6.678 6.678-6.678 3.999 0 6.79 2.746 6.79 6.678 0 3.989-2.663 6.566-6.79 6.566-3.931 0-6.678-2.699-6.678-6.566m-43.428-15.55a2.788 2.788 0 1 1 2.788 2.788 2.787 2.787 0 0 1-2.788-2.788"/></svg>