<svg xmlns="http://www.w3.org/2000/svg" xmlns:xlink="http://www.w3.org/1999/xlink" width="276" height="114" viewBox="0 0 276 114" overflow="visible"><defs><path id="a" d="M0 0h275.609v114.178H0z"/></defs><clipPath id="b"><use xlink:href="#a" overflow="visible"/></clipPath><path clip-path="url(#b)" fill="#FFF" d="M32.797 39.547h5.245c4.747-.131 6.403-2.994 6.403-10.255 0-6.603-2.318-10.034-6.403-10.034h-5.245v20.289zm140.975 27.857c0 5.427 1.336 9.549 5.14 9.549 4.25 0 6.789-5.763 6.789-19.308 0-14.874-2.294-19.978-6.289-20.153-3.87-.169-5.843 3.12-5.64 9.905v20.007zm73.921-29.346c-4.17-.022-5.921 4.684-6.187 10.008-.089 1.807-.122 1.887 0 3.235h12.371c.122-1.348.089-1.428 0-3.235-.263-5.324-2.014-10.03-6.184-10.008m-163.481-.394c-4.17-.023-6.052 5.078-6.317 10.402-.09 1.807-.123 1.887 0 3.235h12.371c.122-1.348.089-1.428 0-3.235-.265-5.324-1.884-10.425-6.054-10.402m40.053 19.92c0 10.789 1.94 19.473 6.808 19.537 4.999.066 6.806-8.748 6.806-19.537 0-10.791-1.938-19.468-6.806-19.538-4.737-.065-6.808 8.748-6.808 19.538m-39.94 19.395c3.394.018 5.185-3.17 5.877-7.228l16.303-.007c-.825-4.068-.923-4.925-1.012-8.086l-27.454.005c-.111 1.229.007 3.295.101 5.194.265 5.325 2.016 10.144 6.185 10.122m163.486 0c3.394.018 5.185-3.207 5.877-7.264h18.587c-2.338 28.297-41.474 28.523-44.895 6.084V90.41h-26.984V75.64c-2.355 14.44-10.616 16.434-14.238 16.422-3.037-.011-10.484-2.508-13.235-10.12l.265 8.289c.055 5.146 3.343 8.401 6.834 8.869v11.966l-31.488.01-.002-11.976c2.643-.073 6.883-2.667 6.927-8.442V68.973c-.965 5.452-5.004 23.083-24.371 23.083-19.191 0-23.532-18.618-24.354-21.348-3.585 20.284-17.073 21.403-22.996 21.327-10.64-.135-17.007-7.455-17.164-7.615-6.401-6.5-7.632-16.344-7.374-26.957 0-2.136.547-6.287.739-8.328-6.885 7.397-13.266 6.476-20.838 6.757l-6.364-.01v12.125c-.006 4.88 1.787 7.799 7.233 7.838V90.43H2.574V76.149c5.447-.04 7.311-3.222 7.304-8.102V24.803c.001-1.032-.252-7.721-7.282-7.772V2.654h40.352c7.605 0 13.012 2.318 16.653 5.184 6.73 5.301 8.073 14.413 8.619 21.159 10.282-8.942 34.64-10.938 38.718 15.825 4.402-20.391 19.431-21.935 22.95-21.948 6.316-.024 17.105 3.792 20.607 14.11V24.265h22.104v8.183c1.629-6.177 7.081-9.533 12.61-9.566 5.332-.032 16.252 5.889 19.055 28.431V21.298c-.024-4.329-2.67-6.563-7-6.542l-.014-11.97h25.724v48.546c2.346-21.505 14.347-28.384 24.448-28.385 10.258-.002 17.531 5.719 21.257 13.036 4.771 9.364 4.432 19.261 4.145 25.673l-31.299.008c-.111 1.229.006 3.295.1 5.194.264 5.324 2.015 10.143 6.186 10.121"/><path clip-path="url(#b)" fill="#00A6DE" d="M32.798 19.258h5.244c4.085 0 6.403 3.431 6.403 10.034 0 7.261-1.656 10.123-6.403 10.255h-5.244V19.258zm2.635 17.685h2.687c2.93-.048 3.623-3.105 3.623-7.455 0-.483.324-7.559-3.623-7.568h-2.687v15.023zm138.338 30.461c0 5.427 1.336 9.549 5.141 9.549 4.25 0 6.789-5.763 6.789-19.308 0-14.874-2.294-19.978-6.289-20.153-3.869-.17-5.844 3.12-5.641 9.905v20.007zm2.677-17.911c0-4.581.53-8.907 2.632-8.907 2.8 0 3.876 6.647 3.876 17.059 0 9.482-1.251 16.221-4.227 16.221-1.926 0-2.281-4.728-2.281-8.526V49.493zm71.244-11.435c4.17-.023 5.922 4.683 6.187 10.008.089 1.807.122 1.887 0 3.234h-12.371c-.123-1.347-.089-1.427 0-3.234.263-5.325 2.014-10.031 6.184-10.008m-3.563 8.974c-.047.951-.066.934 0 1.643h7.034c.063-.709.048-.692 0-1.643-.14-2.8-1.323-6.388-3.519-6.377-2.192-.01-3.376 3.577-3.515 6.377M84.212 37.663c4.17-.022 5.789 5.078 6.054 10.403.09 1.807.122 1.887 0 3.234H77.895c-.122-1.347-.09-1.427 0-3.234.265-5.325 2.147-10.425 6.317-10.403m-3.696 9.256c-.047.951-.065 1.047 0 1.756h7.035c.064-.709.046-.805 0-1.756-.14-2.801-1.324-6.275-3.518-6.264-2.193-.01-3.378 3.463-3.517 6.264m50.557-5.895c2.363 0 4.279 7.415 4.279 16.56 0 9.146-1.916 16.56-4.279 16.56s-4.279-7.414-4.279-16.56c0-9.145 1.916-16.56 4.279-16.56m-6.808 16.56c0 10.789 1.94 19.473 6.808 19.537 4.999.066 6.807-8.748 6.807-19.537 0-10.79-1.939-19.469-6.807-19.537-4.736-.066-6.808 8.747-6.808 19.537m-39.94 19.395c3.394.018 5.185-3.17 5.877-7.228l16.304-.007c-.826-4.068-.923-4.926-1.013-8.086l-27.453.006c-.112 1.229.006 3.294.1 5.194.265 5.324 2.016 10.143 6.185 10.121m18.681-12.689c.044 1.412.043 1.419.248 2.799l-15.417.001c-.002.203-.018.437-.041.914-.14 2.801-1.324 6.389-3.518 6.377-2.194.012-3.378-3.576-3.517-6.377-.047-.951-.216-3.006-.151-3.715h22.396zM247.81 76.979c3.395.018 5.186-3.207 5.877-7.264h18.587c-2.338 28.297-41.473 28.523-44.893 6.084V90.41h-26.986V75.64c-2.354 14.44-10.616 16.434-14.237 16.422-3.037-.011-10.483-2.508-13.234-10.12l.263 8.289c.056 5.146 3.343 8.401 6.834 8.869v11.966l-31.487.01-.003-11.976c2.645-.074 6.884-2.667 6.929-8.442V68.973c-.966 5.452-5.005 23.083-24.371 23.083-19.192 0-23.533-18.618-24.355-21.348-3.585 20.284-17.073 21.402-22.996 21.327-10.64-.135-17.007-7.455-17.164-7.615-6.4-6.5-7.632-16.344-7.374-26.957 0-2.137.547-6.287.739-8.328-6.885 7.396-13.265 6.475-20.838 6.757l-6.364-.011v12.125c-.006 4.88 1.787 7.799 7.233 7.838V90.43H2.574V76.149c5.447-.04 7.311-3.222 7.305-8.102V24.802c.001-1.031-.253-7.72-7.283-7.772V2.654h40.352c7.605 0 13.013 2.317 16.653 5.184 6.73 5.301 8.073 14.413 8.619 21.158 10.282-8.942 34.64-10.937 38.718 15.826 4.403-20.391 19.431-21.935 22.95-21.948 6.316-.024 17.105 3.792 20.607 14.11v-12.72h22.104v8.184c1.628-6.177 7.081-9.533 12.611-9.566 5.332-.032 16.252 5.889 19.054 28.431V21.297c-.024-4.329-2.67-6.562-7-6.541l-.013-11.97h25.723v48.546c2.345-21.505 14.346-28.384 24.449-28.386 10.257-.002 17.53 5.72 21.256 13.037 4.771 9.364 4.431 19.26 4.145 25.672l-31.3.008c-.11 1.229.006 3.294.102 5.194.263 5.325 2.014 10.144 6.184 10.122m3.512-9.89c-.003.204-.02.438-.043.915-.14 2.801-1.322 6.389-3.518 6.377-2.193.012-3.377-3.576-3.516-6.377-.048-.951-.218-3.019-.152-3.728h31.084c.385-4.888 1.594-18.25-4.062-29.288-4.453-8.691-11.913-14.742-23.623-14.74-10.334.002-17.612 5.251-21.857 11.803l.029-31.908h-30.999V17.74c4.329-.022 6.97.372 6.996 4.702v9.735c-2.941-6.488-9.613-12.381-17.733-11.925-3.426.192-5.954 1.668-8.663 3.624v-2.244H147.88v5.624c-4.714-4.824-10.315-7.009-17.622-7.009-11.71 0-19.518 7.351-23.156 15.807-2.081-6.035-9.046-15.806-22.606-15.804-5.56.001-10.728 1.971-14.523 4.317-.559-6.952-3.694-14.817-8.835-18.88C56.982 2.401 50.816.023 42.589 0H.001v19.715c5.512.041 7.281 1.311 7.275 6.755v40.165c.006 5.272-1.348 6.72-7.276 6.763v20.128l42.582-.032V73.357c-5.863-.043-7.191-1.49-7.184-6.763v-7.965l6.822.037c8.74.216 11.753-1.082 14.52-3.255-.53 3.489-.267 9.936.058 12.392 1.517 12.543 5.309 15.922 8.953 19.622 4.993 5.071 11.861 7.282 18.216 7.319 17.497.1 22.115-13.548 23.07-15.834 5.848 13.769 17.488 15.878 24.21 15.828 13.279-.098 18.61-6.327 21.608-11.848v6.833c-.036 4.778-1.11 7.019-6.861 7.126l.01 17.328h36.679V96.85c-5.561-.104-6.678-4.072-6.854-6.633 3.399 4.469 9.715 4.732 10.456 4.604 2.68.261 8.618-.508 11.593-5.923v4.571h32.209v-6.124c4.664 5.006 11.465 7.418 17.819 7.418 10.577 0 25.716-5.799 27.07-27.674h-23.654z"/><path clip-path="url(#b)" d="M272.314 26.923c-1.935 0-3.312-1.449-3.312-3.366 0-2.025 1.529-3.366 3.312-3.366 1.764 0 3.294 1.341 3.294 3.366s-1.53 3.366-3.294 3.366m0-6.147c-1.458 0-2.592 1.143-2.592 2.781 0 1.53.99 2.781 2.592 2.781 1.44 0 2.574-1.134 2.574-2.781.001-1.638-1.133-2.781-2.574-2.781m-.666 4.707h-.612v-3.726h1.413c.9 0 1.36.315 1.36 1.071 0 .675-.415.954-.973 1.017l1.044 1.638h-.693l-.963-1.593h-.576v1.593zm.684-2.115c.459 0 .864-.045.864-.585 0-.45-.44-.504-.81-.504h-.738v1.089h.684z"/></svg>