<svg xmlns="http://www.w3.org/2000/svg" width="85" height="85" viewBox="85.5 85.5 85 85"><path fill="#EDEDED" d="M159.991 92.097c-4.261-10.193-17.796-6.768-24.814-1.754-6.601 4.762-10.443 12.282-12.198 20.219-1.003-5.598-3.008-10.778-8.605-13.368-3.593-1.67-6.935-.835-9.692 1.253-5.598 2.423-9.19 11.112-9.942 16.375-2.256 14.705 6.517 28.657 17.044 39.936 3.509 5.348 8.021 10.109 13.535 13.284-.334 1.003 1.086 1.755 1.838 1.003a41.786 41.786 0 0 0 3.426 1.42c.752.251 1.086-.919.334-1.169a29.66 29.66 0 0 1-2.841-1.337c0-.084.083-.167.083-.251v-.25c3.76-6.267 6.099-13.284 9.776-19.551 4.261-7.186 9.106-13.953 13.534-21.055 6.182-9.774 13.451-23.059 8.522-34.755zm-54.892 8.438a7.33 7.33 0 0 1 3.844-.334c-6.768 1.253-8.355 11.279-8.689 17.128 0 .501 0 1.002-.083 1.503-.502-5.848.166-14.37 4.928-18.297zm46.287-11.864c1.587.334 2.59 1.169 3.258 2.339-4.345-2.005-11.613 1.086-15.456 3.509-7.52 4.762-12.95 13.117-14.621 22.057-.083-.251-.167-.585-.251-.836.084-.584.167-1.169.251-1.838 2.088-8.856 8.188-16.876 15.54-21.89 3.174-2.171 7.352-4.093 11.279-3.341zm-29.41 36.344c.251 1.337 2.256.752 2.089-.585v-.083c.083.334.083.668.167 1.002.251 1.17 2.172.919 2.089-.25-1.253-11.614 5.096-23.143 14.872-29.242 3.175-2.005 10.276-5.347 13.618-2.172.334.334.585.668.752 1.002.168 2.841-.418 5.932-.919 7.854-2.59 11.696-10.192 21.973-15.874 32.333-4.512 8.104-9.44 17.211-11.697 26.485-.501 1.17-1.003 2.423-1.504 3.593-.083-.084-.251-.167-.334-.251-1.503-1.337-3.007-2.674-4.511-4.094a71.897 71.897 0 0 1-12.867-17.128c-2.841-6.851-4.679-14.119-5.347-20.72-.668-5.932-.584-18.631 6.768-20.636 1.921-.501 3.676 0 5.264 1.086 5.262 5.263 6.181 15.373 7.434 21.806zm-2.757-20.47c-1.17-1.337-2.506-2.506-4.01-3.258-1.003-.919-2.089-1.755-3.426-2.423-.25-.167-.585-.251-.835-.418 4.177-.083 6.684 2.507 8.271 6.099zm-21.138 5.849c-1.253 10.527 1.337 21.305 6.183 31.08-3.509-5.514-6.099-11.446-7.269-17.879-.585-3.176-.334-8.439 1.086-13.201zm47.038 22.307c-1.17 1.755-2.423 3.593-3.593 5.348 3.175-5.766 6.434-11.447 9.357-17.295 3.51-6.935 8.438-16.543 7.102-24.563-.083-.501-.167-1.002-.334-1.42-.084-1.336-.418-2.59-.919-3.843 1.671 2.339 2.423 5.515 2.59 8.355.752 12.113-7.769 23.81-14.203 33.418z"/></svg>