<svg xmlns="http://www.w3.org/2000/svg" width="260" height="36" viewBox="-509.5 418 260 36"><g fill="#0D0D0D"><path d="M-502.499 441.491c0 4.445 3.53 6.292 7.444 6.292 2.563 0 6.476-.75 6.476-4.165 0-3.602-4.985-4.211-9.877-5.521-4.939-1.31-9.923-3.228-9.923-9.498 0-6.832 6.429-10.107 12.438-10.107 6.942 0 13.441 2.279 13.441 10h-7c-.233-4.023-3.273-4.292-6.767-4.292-2.33 0-5.032.983-5.032 3.79 0 2.574 1.584 2.9 9.924 5.054 2.423.608 9.877 2.153 9.877 9.733 0 6.13-4.799 10.715-13.837 10.715-7.361 0-14.257-3.764-14.164-12h7zm33.999-16h-10v-7h27v7h-10v28h-7v-28zm48-7h7v29h17v6h-24v-35zm28 0h26v6h-19v8h16v6h-16v9h19v6h-26v-35zm61 11c-.466-3.312-4.361-4.8-8-4.8-6.58 0-8.8 5.468-8.8 11.3 0 5.553 2.22 11.3 8.8 11.3 4.479 0 7.441-3.415 8-7.8h7c-.746 8.305-6.835 14-15 14-10.312 0-16.99-7.889-16.99-17.5 0-9.893 6.678-17.5 16.99-17.5 7.325 0 14.114 3.301 15 11h-7zm26-11c10.311 0 16 7.514 16 17.5 0 9.703-5.689 17.5-16 17.5-10.312 0-16-7.796-16-17.5 0-9.986 5.688-17.5 16-17.5zm0 28.8c6.579 0 8.8-5.694 8.8-11.3 0-5.889-2.221-11.3-8.8-11.3-6.58 0-8.8 5.411-8.8 11.3 0 5.606 2.221 11.3 8.8 11.3zm20-28.8h10l8 24.07 8-24.07h10v35h-7v-24l-8 24h-6l-8-24v24l-7-.057v-34.943zm-147 25c-3.36 9.104-7.919 10.029-10.882 10-.967-.01-3.097.044-4.118 0v-6c.306.045 2.388 0 3 0 2.598 0 4.339-1.628 5-5l-10.5-24h8l6.5 15-.018.204 5.018-15.204 7.6.055-9.6 24.945z"/><circle cx="-360" cy="449.991" r="3.5"/></g></svg>