<?xml version="1.0" encoding="utf-8"?>
<!-- Generator: Adobe Illustrator 16.0.0, SVG Export Plug-In . SVG Version: 6.00 Build 0)  -->
<!DOCTYPE svg PUBLIC "-//W3C//DTD SVG 1.1//EN" "http://www.w3.org/Graphics/SVG/1.1/DTD/svg11.dtd">
<svg version="1.1" id="Layer_1" xmlns="http://www.w3.org/2000/svg" xmlns:xlink="http://www.w3.org/1999/xlink" x="0px" y="0px"
	 width="260px" height="36px" viewBox="-509.5 418 260 36" enable-background="new -509.5 418 260 36" xml:space="preserve">
<g>
	<path fill="#0D0D0D" d="M-502.499,441.491c0,4.445,3.53,6.292,7.444,6.292c2.563,0,6.476-0.75,6.476-4.165
		c0-3.602-4.985-4.211-9.877-5.521c-4.939-1.31-9.923-3.228-9.923-9.498c0-6.832,6.429-10.107,12.438-10.107
		c6.942,0,13.441,2.279,13.441,10h-7c-0.233-4.023-3.273-4.292-6.767-4.292c-2.33,0-5.032,0.983-5.032,3.79
		c0,2.574,1.584,2.9,9.924,5.054c2.423,0.608,9.877,2.153,9.877,9.733c0,6.13-4.799,10.715-13.837,10.715
		c-7.361,0-14.257-3.764-14.164-12H-502.499z"/>
	<path fill="#0D0D0D" d="M-468.5,425.491h-10v-7h27v7h-10v28h-7V425.491z"/>
	<path fill="#0D0D0D" d="M-420.5,418.491h7v29h17v6h-24V418.491z"/>
	<path fill="#0D0D0D" d="M-392.5,418.491h26v6h-19v8h16v6h-16v9h19v6h-26V418.491z"/>
	<path fill="#0D0D0D" d="M-331.5,429.491c-0.466-3.312-4.361-4.8-8-4.8c-6.58,0-8.8,5.468-8.8,11.3c0,5.553,2.22,11.3,8.8,11.3
		c4.479,0,7.441-3.415,8-7.8h7c-0.746,8.305-6.835,14-15,14c-10.312,0-16.99-7.889-16.99-17.5c0-9.893,6.678-17.5,16.99-17.5
		c7.325,0,14.114,3.301,15,11H-331.5z"/>
	<path fill="#0D0D0D" d="M-305.5,418.491c10.311,0,16,7.514,16,17.5c0,9.703-5.689,17.5-16,17.5c-10.312,0-16-7.796-16-17.5
		C-321.5,426.005-315.812,418.491-305.5,418.491z M-305.5,447.291c6.579,0,8.8-5.694,8.8-11.3c0-5.889-2.221-11.3-8.8-11.3
		c-6.58,0-8.8,5.411-8.8,11.3C-314.3,441.597-312.079,447.291-305.5,447.291z"/>
	<path fill="#0D0D0D" d="M-285.5,418.491h10l8,24.07l8-24.07h10v35h-7v-24l-8,24h-6l-8-24v24l-7-0.057V418.491z"/>
	<path fill="#0D0D0D" d="M-432.5,443.491c-3.36,9.104-7.919,10.029-10.882,10c-0.967-0.01-3.097,0.044-4.118,0v-6
		c0.306,0.045,2.388,0,3,0c2.598,0,4.339-1.628,5-5l-10.5-24h8l6.5,15l-0.018,0.204l5.018-15.204l7.6,0.055L-432.5,443.491z"/>
	<circle fill="#0D0D0D" cx="-360" cy="449.991" r="3.5"/>
</g>
</svg>
