<svg xmlns="http://www.w3.org/2000/svg" width="585" height="83" viewBox="0 0 585 83"><path d="M16.797 46.4V24.384l-6.621 2.953c-.001 0-1.688 3.781-1.393 9.267.233 4.286 2.629 9.413 4.47 11.562l3.544-1.766M36.186 1.072c1.634.144 4.198.948 6.13 2.641 2.052 1.993 2.52 5.018 1.801 7.767-.64 2.449-1.356 3.721-3.855 5.414-2.526 1.704-5.58 1.561-5.58 1.561v10.611l5.162 4.178-5.163 4.165.001 14.455s5.172-2.965 8.38-9.604c0 0 .132-.361.434-1.045.286 1.777.122 5.379-1.89 10-1.516 3.48-4.272 6.83-7.73 8.738-6.128 3.398-10.724 3.723-15.651 2.701-5.768-1.188-11.008-4.43-14.584-10.084C1.128 48.597.004 43.965.107 38.981c.202-9.784 7.48-18.222 15.88-21.368 1.023-.384 1.431-.636 2.881-.768-.668.457-1.441 1.044-2.39 1.668-2.706 1.777-5.023 5.318-6.013 8.043l16.307-7.274V42.08l-13.151 6.59c1.5 2.076 6.051 5.223 9.946 5.666 6.625.732 10.512-2.16 10.512-2.16l-.001-14.767-5.134-4.165 5.137-4.166V18.455c-2.799-.324-6.202-1.249-8.19-1.741-2.924-.72-12.675-3.458-14.208-3.686-1.533-.228-3.423-.155-4.566.865-1.144 1.032-1.853 2.845-1.365 4.477.275.924.911 1.465 1.393 1.993 0 0-.563-.048-1.583-.66-1.841-1.104-3.241-3.265-3.41-5.93-.217-3.493 1.221-6.639 4.102-8.751 2.503-1.609 5.334-2.641 8.626-2.173 4.802.684 11.259 3.397 17.01 4.777 2.228.541 3.953.721 5.52-.192.73-.528 2.013-1.885.964-3.685-1.224-2.113-3.571-2.065-5.559-2.437 1.71-.359 2.085-.359 3.371-.24zm63.459 39.59l-7.409 5.428V28.034l7.409 12.628m-.213-17.346s-4.996 3.025-8.356 5.03c-3.359 1.993-7.866 4.189-7.866 4.189v21.008l-3.005 2.414.398.467 2.932-2.363 9.189 8.307 15.97-12.652-.378-.457-8.827 6.926-7.254-6.793.001-2.533 14.572-10.721-7.376-12.822zm-41.861 46.95c2.097.516 5.796.805 10.256-1.43 4.938-2.473 7.421-7.719 7.387-13.096l.209-7.623.001-16.65 3.157-2.413-.368-.468-3.107 2.341-7.17-7.971-9.198 7.898V4.013l-11.494 8.883c.511.324 2.14.625 2.188 2.917v37.599l-4.866 3.613.333.504 2.351-1.754 6.544 6.086 10.303-8.197-.374-.469-2.422 1.92-2.563-2.545.024-20.947 3.002-2.557 4.477 5.558s-.009 13.565.003 18.067c-.034 4.801-.049 10.791-2.573 13.684-2.52 2.906-3.531 3.135-6.1 3.891m71.504-1.897c-4.116-.469-5.845-2.965-5.798-4.934.03-1.262 1.175-3.734 3.678-4.07 2.501-.348 5.058.828 7.217 3.361l9.507-10.504-.458-.408-2.553 2.857c-2.594-2.953-6.276-4.814-9.942-5.354V17.314l24.694 44.981s.236.516 1.252.516c.874 0 .664-.709.664-.709l-.003-45.268c2.006-.084 5.069-1.188 6.557-2.712 4.755-4.886 2.812-10.216 2.291-10.732-.291 2.329-2.082 4.67-5.071 4.682-3.922.012-6.313-2.881-6.313-2.881l-9.5 10.828.454.408 2.722-3.109c3.324 3.061 5.751 3.349 8.261 3.517l-.005 26.265-18.317-33.277c-1.656-2.749-4.183-5.162-8.141-5.198-4.551-.024-7.807 3.985-8.196 7.442-.44 3.901.047 4.802.047 4.802s.67-4.345 3.359-4.309c2.415.036 3.672 2.256 4.641 3.925v9.639c-2.491.168-8.976.456-9.372 7.203-.029 2.509 1.529 5.138 2.894 6.026 1.755 1.152 3.124 1.128 3.124 1.128s-2.102-1.116-1.473-3.325c.563-1.98 4.682-2.305 4.83-1.477l-.001 13.601c-1.981-.023-8.326.193-11.188 5.631-1.725 3.289-1.624 6.963.22 9.555 1.502 2.114 4.595 4.815 9.919 3.903m52.368-27.707l-7.41 5.428V28.034l7.41 12.628m-.213-17.346s-4.998 3.025-8.357 5.03c-3.36 1.993-7.865 4.189-7.865 4.189v21.008l-3.006 2.414.398.467 2.931-2.363 9.189 8.307 15.97-12.652-.378-.457-8.825 6.926-7.255-6.793.001-2.533 14.572-10.721-7.375-12.822zm22.323 39.207l-7.83-6.508-3.439 2.498-.349-.492 3.498-2.557V37.277c.169-7.491-6.86-5.63-6.48-13.577.168-3.493 3.55-6.134 5.255-7.01 1.827-.925 3.804-.925 3.804-.925s-3.205 2.005-2.427 4.886c1.199 4.441 8.793 4.838 8.936 10.756v20.636l5.608 4.49 1.474-1.152V33.04l-3.023-3.001 7.785-6.891 7.111 6.302-2.713 2.941v19.796l6.66 5.498 1.184-.758V33.099l-3.029-2.833 7.8-7.13 7.292 6.026 2.912-2.581.394.456-6.555 5.762v19.423L220.645 62.57l-8.581-6.795-8.511 6.748m343.369-21.861l-7.41 5.428V28.034l7.41 12.628m-.213-17.346s-4.998 3.025-8.355 5.03c-3.361 1.993-7.867 4.189-7.867 4.189v21.008l-3.006 2.414.4.467 2.932-2.363 9.189 8.307 15.969-12.652-.377-.457-8.826 6.926-7.256-6.793v-2.533l14.574-10.721-7.377-12.822zm-74.976 8.787l.391.456 3.008-2.593 4.465 5.054v17.359l-2.168 1.98 6.957 7.864 7.138-7.035-2.933-3.038V31.155l1.775-1.417 4.936 5.762v17.311l-1.856 1.849 6.551 7.371 7.006-7.011-2.574-2.702-.067-21.079 1.893-1.537 5.146 5.666v17.216l-1.693 1.691 7.233 7.887 9.711-8.967-.412-.443-2.357 2.172-3.617-4.01V31.263l3.492-2.653-.363-.481-3.497 2.654-6.607-7.407-9.448 7.467-6.617-7.203-9.125 7.143-6.678-7.107-9.69 8.427"/><path d="M451.962 31.563l.392.456 2.542-2.197 3.974 4.706v19.843l-2.803 2.449.391.457 2.943-2.509 6.411 7.394 9.263-8.269-.39-.457-2.729 2.4-3.83-4.418V32.019l3.23-2.797-.39-.456-3.069 2.641-6.746-7.863-9.189 8.019m2.67-16.434l6.974-6.386 5.672 6.29-7.006 6.363-5.64-6.267"/><path d="M425.866 46.4V24.384l-6.621 2.953s-1.689 3.781-1.395 9.267c.232 4.286 2.629 9.413 4.471 11.562l3.545-1.766m19.387-45.328c1.635.144 4.199.948 6.131 2.641 2.053 1.993 2.52 5.018 1.801 7.767-.641 2.449-1.355 3.721-3.857 5.414-2.523 1.704-5.578 1.561-5.578 1.561v10.611l5.164 4.178-5.164 4.165v14.455s5.172-2.965 8.381-9.604c0 0 .133-.361.432-1.045.285 1.777.125 5.379-1.889 10-1.516 3.48-4.273 6.83-7.73 8.738-6.127 3.398-10.723 3.723-15.648 2.701-5.77-1.188-11.008-4.43-14.584-10.084-2.514-3.973-3.641-8.605-3.535-13.589.201-9.784 7.479-18.222 15.881-21.368 1.021-.384 1.428-.636 2.881-.768-.67.457-1.443 1.044-2.391 1.668-2.705 1.777-5.023 5.318-6.014 8.043l16.305-7.274V42.08l-13.148 6.59c1.5 2.076 6.051 5.223 9.947 5.666 6.623.732 10.51-2.16 10.51-2.16V37.409l-5.133-4.165 5.133-4.166V18.455c-2.799-.324-6.199-1.249-8.188-1.741-2.926-.72-12.678-3.458-14.209-3.686s-3.422-.156-4.564.865c-1.145 1.032-1.852 2.845-1.365 4.477.275.924.91 1.465 1.393 1.993 0 0-.564-.048-1.584-.66-1.842-1.104-3.242-3.265-3.41-5.93-.215-3.493 1.223-6.639 4.104-8.751 2.504-1.609 5.334-2.641 8.627-2.173 4.801.684 11.258 3.397 17.01 4.777 2.229.541 3.953.721 5.518-.192.73-.528 2.014-1.885.965-3.685-1.225-2.113-3.57-2.065-5.559-2.437 1.707-.359 2.082-.359 3.367-.24zm122.241 26.302v10.432l3.473 3.025s7.543-6.038 10.281-11.632c0 0-3.389 4.598-7.953 3.193-3.82-1.165-5.801-5.018-5.801-5.018m-8.422 27.657s3.303-5.461 8.977-4.285c5.443 1.129 7.332 6.879 7.332 6.879v-13.24l-3.797-3.303c-4.17 4.191-11.592 10.252-12.512 13.949zm5.408 10.049c-1.059.311-5.658-.805-6.762-5.57-1.074-4.646 2.15-7.791 7.023-12.736l-5.752-5.259V31.479s4.227-2.113 7.539-4.178c3.312-2.077 6.701-4.321 6.701-4.321s2.471 3.121 5.264 2.869c4.373-.384 4.17-3.83 4.043-4.646.746 1.332 2.744 5.293-4.939 14.152l6.258 5.054v13.038s-7.27 3.781-14.145 8.799c0 0-3.838-4.801-7.17-2.508-2.249 1.547-1.22 4.164 1.94 5.342zM312.966 50.254l8.082 7.311V35.188l-8.082-7.479v22.545m16.662-18.271l2.818-2.593.404.456-2.744 2.545v20.732s-5.213 2.762-8.852 4.814c-3.635 2.053-7.52 4.465-7.52 4.465l-9.564-8.055-2.529 2.197-.408-.457 2.658-2.316V31.479h.035s4.512-2.041 8.316-4.189c3.404-1.921 7.213-4.142 7.213-4.142l10.173 8.835zm18.805-2.101l6.074-6.206s.836.732 1.617 1.116c.445.216 2.283 1.165 3.971.24.914-.504 1.045-.636 2.047-1.585.205 4.826-2.111 8.223-5.002 9.627-1.184.576-4.639 1.681-8.254-2.725v22.304l3.846 3.398 3.209-2.654.371.469-10.053 8.391-7.648-6.961-2.752 2.592-.451-.48 4.191-3.781.035-19.255-3.215-4.261-2.764 2.437-.4-.444 9.738-8.751 5.44 6.529m25.613 9.291l11.232-16.337s1.48 1.752 4.061 2.437c3.508.912 6.57-2.473 6.57-2.473-.586 4.37-2.801 9.327-7.375 10.083-4.029.672-7.777-2.461-7.777-2.461l-.729 1.128 15.594 23.553 3.119-2.736.402.455-10.701 9.352-14.396-23.001"/><path d="M364.767 17.362c0-3.529-1.445-5.702-3.334-5.546l12.252-8.607v48.715h.002l3.234 3.408 2.451-2.125.385.457-9.873 8.619-6.688-6.279-2.678 2.354-.424-.457 4.672-4.068V17.362M286.1 31.059s-1.353 1.537-3.482 1.537-3.523-1.548-3.523-1.548v6.674s1.394-1.549 3.523-1.549 3.482 1.464 3.482 1.464v-6.578m0-14.297l-4.725-4.153-2.281 1.8V30.05s1.405 1.776 3.534 1.776c2.131 0 3.472-1.704 3.472-1.704v-13.36zm-7.006 44.308s2.855.756 4.937-.949c2.312-1.908 2.069-4.584 2.069-4.584v-16.88s-1.341-1.729-3.472-1.729c-2.129 0-3.534 1.789-3.534 1.789V61.07zm-16.751-44.512c-.001-3.289-1.337-5.125-3.501-5.174-3.114-.072-3.852 4.322-3.852 4.322s-.567-3.385 2.266-6.458c1.593-1.716 4.565-4.129 9.212-3.013 4.799 1.164 6.162 4.885 6.162 8.174v45.316s1.813.217 3.057.494c1.443.299 2.81.684 2.81.684V6.258h.597v7.37l9.84-7.922 7.208 6.41 3.361-2.905.383.456-3.514 3.025v42.136c-.174 2.748-.617 5.545-3.213 7.154-5.79 3.434-12.775-.527-18.997-1.428-4.618-.686-11.869-1.561-13.688 2.676-.594 1.393-.553 3.541 1.542 4.945 4.204 2.811 22.925-4.717 29.346-1.729 5.854 2.725 5.832 7.035 4.928 10-1.521 5.559-8.539 6.531-8.539 6.531s3.433-1.994 2.454-5.295c-.496-1.668-1.629-2.137-5.303-1.729-8.024.912-17.616 4.801-24.061 2.102-3.322-1.381-5.671-5.535-5.443-9.615.166-5.871 6.944-8.188 6.944-8.188l-.002-21.717c-.193-.864-3.811-.636-4.601.96-1.203 2.414 1.495 3.518 1.495 3.518s-2.236.336-4.11-1.825c-.912-1.057-2.818-4.754-.34-8.175 2.037-2.821 4.479-3.313 7.559-3.649V16.558z"/></svg>