<svg xmlns="http://www.w3.org/2000/svg" xmlns:xlink="http://www.w3.org/1999/xlink" width="203" height="273" viewBox="0 0 203 273" overflow="visible"><defs><path id="a" d="M0 0h202.633v273.35H0z"/></defs><use xlink:href="#a" overflow="visible" fill="#72267E"/><clipPath id="b"><use xlink:href="#a" overflow="visible"/></clipPath><path clip-path="url(#b)" fill-rule="evenodd" clip-rule="evenodd" fill="#72267E" d="M0 0h202.633v274.013H0z"/><path fill="#FFF" d="M144.959 106.994c0 38.483-6.717 81.612-44.681 81.612-35.643 0-42.875-43.129-42.616-80.32.258-40.548 5.94-84.455 42.873-84.455 36.675 0 44.424 42.356 44.424 83.163zm-44.681 84.712c45.713 0 80.065-39.771 80.065-85.486 0-45.456-33.834-85.488-79.549-85.488-43.909 0-78.517 41.065-78.517 86.779.001 44.681 33.318 84.195 78.001 84.195m-2.697 24.586c0 3.824-3 6.001-5.808 6.001-2.852 0-5.803-2.177-5.803-6.001 0-3.82 2.951-5.973 5.803-5.973 2.808 0 5.808 2.152 5.808 5.973zm2.371 0c0-4.957-4.065-8.006-8.178-8.006-4.111 0-8.173 3.049-8.173 8.006 0 5.009 4.062 8.031 8.173 8.031 4.113 0 8.178-3.023 8.178-8.031"/><path fill="none" stroke="#FFF" stroke-width=".497" d="M97.581 216.292c0 3.824-3 6.001-5.808 6.001-2.852 0-5.803-2.177-5.803-6.001 0-3.82 2.951-5.973 5.803-5.973 2.808 0 5.808 2.152 5.808 5.973zm2.371 0c0-4.957-4.065-8.006-8.178-8.006-4.111 0-8.173 3.049-8.173 8.006 0 5.009 4.062 8.031 8.173 8.031 4.113 0 8.178-3.023 8.178-8.031z"/><path fill="#FFF" d="M118.17 212.93c0 1.619-1.359 2.347-2.736 2.347h-1.911v-4.692h1.911c1.377-.001 2.736.749 2.736 2.345zm2.318 0c0-2.927-2.471-4.331-4.648-4.331h-4.641v15.434h2.324v-6.771h2.317c2.178 0 4.648-1.404 4.648-4.332"/><path fill="none" stroke="#FFF" stroke-width=".497" d="M118.17 212.93c0 1.619-1.359 2.347-2.736 2.347h-1.911v-4.692h1.911c1.377-.001 2.736.749 2.736 2.345zm2.318 0c0-2.927-2.471-4.331-4.648-4.331h-4.641v15.434h2.324v-6.771h2.317c2.178 0 4.648-1.404 4.648-4.332z"/><path fill="#FFF" d="M138.411 212.93c0 1.619-1.354 2.347-2.729 2.347h-2.154v-4.692h2.154c1.376-.001 2.729.749 2.729 2.345zm4.884 11.103l-5.268-7.138c1.494-.604 2.707-1.912 2.707-3.965 0-2.927-2.465-4.331-4.641-4.331h-4.891v15.434h2.324v-6.771h2.177l4.861 6.771h2.731"/><path fill="none" stroke="#FFF" stroke-width=".497" d="M138.411 212.93c0 1.619-1.354 2.347-2.729 2.347h-2.154v-4.692h2.154c1.376-.001 2.729.749 2.729 2.345zm4.884 11.103l-5.268-7.138c1.494-.604 2.707-1.912 2.707-3.965 0-2.927-2.465-4.331-4.641-4.331h-4.891v15.434h2.324v-6.771h2.177l4.861 6.771h2.731z"/><path fill="#FFF" d="M161.439 218.178h-4.428l1.184-2.927a49.69 49.69 0 0 0 .998-2.732h.046c.411 1.21.677 1.911 1.015 2.758l1.185 2.901zm4.817 5.855l-6.582-15.651h-.846l-6.576 15.651h2.295l1.67-3.99h6l1.67 3.99h2.369"/><path fill="none" stroke="#FFF" stroke-width=".497" d="M161.439 218.178h-4.428l1.184-2.927a49.69 49.69 0 0 0 .998-2.732h.046c.411 1.21.677 1.911 1.015 2.758l1.185 2.901zm4.817 5.855l-6.582-15.651h-.846l-6.576 15.651h2.295l1.67-3.99h6l1.67 3.99h2.369z"/><path fill="#FFF" d="M187.32 224.033v-6.748h-7.959v6.748h-2.34v-15.434h2.34v6.678h7.959v-6.678h2.346v15.434h-2.346"/><path fill="none" stroke="#FFF" stroke-width=".497" d="M187.32 224.033v-6.748h-7.959v6.748h-2.34v-15.434h2.34v6.678h7.959v-6.678h2.346v15.434z"/><path fill="#D8C1D1" d="M20.274 210.618v13.513h-2.347v-13.513h-4.959v-2.025h12.263v2.025h-4.957"/><path fill="none" stroke="#D8C1D1" stroke-width=".497" d="M20.274 210.618v13.513h-2.347v-13.513h-4.959v-2.025h12.263v2.025z"/><path fill="#D8C1D1" d="M45.94 224.131v-6.793h-7.96v6.793h-2.347v-15.538h2.347v6.724h7.96v-6.724h2.345v15.538H45.94"/><path fill="none" stroke="#D8C1D1" stroke-width=".497" d="M45.94 224.131v-6.793h-7.96v6.793h-2.347v-15.538h2.347v6.724h7.96v-6.724h2.345v15.538z"/><path fill="#D8C1D1" d="M60.138 224.131v-15.538h8.319v2.025h-5.974v4.699h5.01v2.021h-5.01v4.774h6.823v2.019h-9.168"/><path fill="none" stroke="#D8C1D1" stroke-width=".497" d="M60.138 224.131v-15.538h8.319v2.025h-5.974v4.699h5.01v2.021h-5.01v4.774h6.823v2.019z"/><path fill="#D8C1D1" d="M28.16 256.763l-.459-5.141a152.505 152.505 0 0 1-.409-5.405h-.049a164.215 164.215 0 0 1-2.372 4.845l-2.951 5.823h-.868l-2.975-5.772c-.921-1.803-1.767-3.483-2.37-4.845h-.049c-.122 1.85-.265 3.722-.414 5.402l-.433 5.093h-2.083l1.333-15.537h1.452l3.676 7.134a121.233 121.233 0 0 1 2.37 4.851h.049c.626-1.467 1.4-3.071 2.322-4.873l3.626-7.111h1.452l1.377 15.537H28.16"/><path fill="none" stroke="#D8C1D1" stroke-width=".497" d="M28.16 256.763l-.459-5.141a152.505 152.505 0 0 1-.409-5.405h-.049a164.215 164.215 0 0 1-2.372 4.845l-2.951 5.823h-.868l-2.975-5.772c-.921-1.803-1.767-3.483-2.37-4.845h-.049c-.122 1.85-.265 3.722-.414 5.402l-.433 5.093h-2.083l1.333-15.537h1.452l3.676 7.134a121.233 121.233 0 0 1 2.37 4.851h.049c.626-1.467 1.4-3.071 2.322-4.873l3.626-7.111h1.452l1.377 15.537H28.16z"/><path fill="#D8C1D1" d="M50.658 250.87h-4.43l1.187-2.943c.314-.807.581-1.512.991-2.758h.048c.413 1.218.68 1.929 1.017 2.78l1.187 2.921zm4.81 5.893l-6.578-15.758h-.846l-6.582 15.758h2.298l1.669-4.021h5.998l1.669 4.021h2.372"/><path fill="none" stroke="#D8C1D1" stroke-width=".497" d="M50.658 250.87h-4.43l1.187-2.943c.314-.807.581-1.512.991-2.758h.048c.413 1.218.68 1.929 1.017 2.78l1.187 2.921zm4.81 5.893l-6.578-15.758h-.846l-6.582 15.758h2.298l1.669-4.021h5.998l1.669 4.021h2.372z"/><path fill="#D8C1D1" d="M74.142 257.057c-4.161 0-8.466-2.804-8.466-8.065 0-5.38 4.476-8.085 8.322-8.085 2.128 0 3.844.517 4.981 1.244l-.437 2.047c-1.134-.733-2.659-1.243-4.279-1.243-3.023 0-6.216 1.996-6.216 6.065 0 4.016 3.096 5.989 6.24 5.989 1.427 0 2.541-.293 3.266-.807v-3.234h-3.555v-1.903h5.781v6.312c-1.476 1.189-3.338 1.68-5.637 1.68"/><path fill="none" stroke="#D8C1D1" stroke-width=".497" d="M74.142 257.057c-4.161 0-8.466-2.804-8.466-8.065 0-5.38 4.476-8.085 8.322-8.085 2.128 0 3.844.517 4.981 1.244l-.437 2.047c-1.134-.733-2.659-1.243-4.279-1.243-3.023 0-6.216 1.996-6.216 6.065 0 4.016 3.096 5.989 6.24 5.989 1.427 0 2.541-.293 3.266-.807v-3.234h-3.555v-1.903h5.781v6.312c-1.476 1.189-3.338 1.68-5.637 1.68z"/><path fill="#D8C1D1" d="M100.362 250.87h-4.426l1.183-2.943c.314-.807.581-1.512.994-2.758h.049a48.237 48.237 0 0 0 1.014 2.78l1.186 2.921zm4.813 5.893l-6.58-15.758h-.846l-6.579 15.758h2.3l1.665-4.021h6.001l1.671 4.021h2.368"/><path fill="none" stroke="#D8C1D1" stroke-width=".497" d="M100.362 250.87h-4.426l1.183-2.943c.314-.807.581-1.512.994-2.758h.049a48.237 48.237 0 0 0 1.014 2.78l1.186 2.921zm4.813 5.893l-6.58-15.758h-.846l-6.579 15.758h2.3l1.665-4.021h6.001l1.671 4.021h2.368z"/><path fill="#D8C1D1" d="M115.891 256.763v-.563l5.076-8.984c.801-1.388 1.596-2.8 2.346-3.993l-.021-.025h-7.017v-1.971h10.157v.558l-5.098 8.962a200.518 200.518 0 0 1-2.352 4.021l.027.022h7.816v1.974h-10.934"/><path fill="none" stroke="#D8C1D1" stroke-width=".497" d="M115.891 256.763v-.563l5.076-8.984c.801-1.388 1.596-2.8 2.346-3.993l-.021-.025h-7.017v-1.971h10.157v.558l-5.098 8.962a200.518 200.518 0 0 1-2.352 4.021l.027.022h7.816v1.974h-10.934z"/><path fill="#D8C1D1" d="M138.891 241.226h2.346v15.537h-2.346z"/><path fill="none" stroke="#D8C1D1" stroke-width=".497" d="M138.891 241.226h2.346v15.537h-2.346z"/><path fill="#D8C1D1" d="M167.389 257.105l-6.729-7.307c-1.404-1.512-2.898-3.192-4.061-4.63l-.051.027c.051 1.41.051 2.51.051 3.652v7.915h-2.352v-15.537h1.624l5.877 6.503c1.331 1.482 2.803 3.112 3.993 4.602l.045-.022c-.045-1.195-.045-2.487-.045-3.632v-7.45h2.346v15.879h-.698"/><path fill="none" stroke="#D8C1D1" stroke-width=".497" d="M167.389 257.105l-6.729-7.307c-1.404-1.512-2.898-3.192-4.061-4.63l-.051.027c.051 1.41.051 2.51.051 3.652v7.915h-2.352v-15.537h1.624l5.877 6.503c1.331 1.482 2.803 3.112 3.993 4.602l.045-.022c-.045-1.195-.045-2.487-.045-3.632v-7.45h2.346v15.879h-.698z"/><path fill="#D8C1D1" d="M180.738 256.763v-15.537h8.319v2.019h-5.973v4.704h5.01v2.018h-5.01v4.775h6.818v2.021h-9.164"/><path fill="none" stroke="#D8C1D1" stroke-width=".497" d="M180.738 256.763v-15.537h8.319v2.019h-5.973v4.704h5.01v2.018h-5.01v4.775h6.818v2.021z"/></svg>