<svg xmlns="http://www.w3.org/2000/svg" xmlns:xlink="http://www.w3.org/1999/xlink" width="275" height="72" viewBox="0 0 275 72" overflow="visible"><defs><path id="a" d="M0 0h274.504v72.248H0z"/></defs><clipPath id="b"><use xlink:href="#a" overflow="visible"/></clipPath><path clip-path="url(#b)" fill="#807F83" d="M25.758 70.467V3.439h-24.1a1.656 1.656 0 1 1 0-3.314h51.516c.915 0 1.656.745 1.656 1.658 0 .915-.741 1.656-1.656 1.656H29.072v67.028a1.656 1.656 0 1 1-3.314 0m37.504 0a1.656 1.656 0 1 0 3.313 0V37.778h43.048v32.688a1.657 1.657 0 0 0 3.315 0V1.781a1.657 1.657 0 0 0-3.315 0v32.682H66.575V1.781a1.656 1.656 0 1 0-3.313 0v68.686z"/><defs><path id="c" d="M156.534.131c-18.3.339-33.259 14.323-35.129 32.21v.799c.06.286.195.554.394.776.319.344.761.539 1.23.539h57.792a1.658 1.658 0 0 0 0-3.314h-55.917c2.393-15.682 15.95-27.704 32.309-27.701 14.486-.003 26.771 9.426 31.057 22.473a1.664 1.664 0 0 0 2.096 1.058 1.656 1.656 0 0 0 1.053-2.093C186.765 10.705 173.552.421 157.893.131h-1.359z"/></defs><clipPath id="d"><use xlink:href="#c" overflow="visible"/></clipPath><linearGradient id="e" gradientUnits="userSpaceOnUse" y1="72.248" x2="1" y2="72.248" gradientTransform="matrix(70.1338 0 0 -70.1338 121.438 5084.34)"><stop offset="0" stop-color="#c69930"/><stop offset=".101" stop-color="#d09b2c"/><stop offset=".3" stop-color="#eee8bd"/><stop offset=".35" stop-color="#f5edb8"/><stop offset=".4" stop-color="#f6ea91"/><stop offset=".413" stop-color="#ead77e"/><stop offset=".434" stop-color="#dec263"/><stop offset=".456" stop-color="#d4b24d"/><stop offset=".481" stop-color="#cea63e"/><stop offset=".51" stop-color="#c99e34"/><stop offset=".544" stop-color="#c79a30"/><stop offset=".6" stop-color="#c69930"/><stop offset=".643" stop-color="#cba23d"/><stop offset=".715" stop-color="#d4b158"/><stop offset=".787" stop-color="#dcbe6e"/><stop offset=".859" stop-color="#e2c77d"/><stop offset=".93" stop-color="#e6cd85"/><stop offset="1" stop-color="#e7cf88"/></linearGradient><path clip-path="url(#d)" fill="url(#e)" d="M121.405.131h70.3v34.324h-70.3z"/><defs><path id="f" d="M0 0h274.504v72.248H0z"/></defs><clipPath id="g"><use xlink:href="#f" overflow="visible"/></clipPath><path clip-path="url(#g)" fill="none" stroke="#C69930" stroke-width=".25" d="M123.029 34.455a1.67 1.67 0 0 1-1.23-.539 1.685 1.685 0 0 1-.424-1.277C123.131 14.387 138.502.125 157.212.125c15.955 0 29.484 10.375 34.205 24.753a1.656 1.656 0 1 1-3.147 1.035c-4.289-13.047-16.572-22.476-31.059-22.474-16.359-.002-29.916 12.02-32.309 27.702h55.916a1.658 1.658 0 0 1 0 3.314h-57.789z"/><defs><path id="h" d="M123.025 37.818c-.466 0-.912.195-1.226.545a1.643 1.643 0 0 0-.42 1.271c1.655 17.222 15.446 30.877 32.727 32.355l6.373-.015c14.513-1.306 26.545-11.21 30.939-24.583a1.663 1.663 0 0 0-1.053-2.096 1.664 1.664 0 0 0-2.096 1.057c-4.286 13.037-16.57 22.461-31.057 22.453-16.359.008-29.911-12.007-32.309-27.676h55.919c.915 0 1.659-.738 1.659-1.658a1.66 1.66 0 0 0-1.659-1.654h-57.797z"/></defs><clipPath id="i"><use xlink:href="#h" overflow="visible"/></clipPath><linearGradient id="j" gradientUnits="userSpaceOnUse" y1="72.242" x2="1" y2="72.242" gradientTransform="scale(71.3032 -71.3032) rotate(.127 33034.68 801.125)"><stop offset="0" stop-color="#a3a5a8"/><stop offset=".101" stop-color="#a6a8ab"/><stop offset=".3" stop-color="#e5e6e7"/><stop offset=".35" stop-color="#eaebec"/><stop offset=".4" stop-color="#e5e6e7"/><stop offset=".408" stop-color="#dedfe0"/><stop offset=".434" stop-color="#c8cacc"/><stop offset=".462" stop-color="#b7b9bb"/><stop offset=".495" stop-color="#acaeb0"/><stop offset=".534" stop-color="#a5a7aa"/><stop offset=".6" stop-color="#a3a5a8"/><stop offset=".677" stop-color="#b2b4b7"/><stop offset=".787" stop-color="#c3c5c7"/><stop offset=".895" stop-color="#cecfd1"/><stop offset="1" stop-color="#d1d3d4"/></linearGradient><path clip-path="url(#i)" fill="url(#j)" d="M121.258 37.818l70.447-.156.075 34.328-70.446.156z"/><defs><path id="k" d="M0 0h274.504v72.248H0z"/></defs><clipPath id="l"><use xlink:href="#k" overflow="visible"/></clipPath><path clip-path="url(#l)" fill="none" stroke="#A7A9AC" stroke-width=".25" d="M180.822 41.133a1.658 1.658 0 1 0 0-3.316h-57.797c-.467 0-.912.197-1.226.547a1.643 1.643 0 0 0-.42 1.271c1.754 18.242 17.124 32.484 35.833 32.488 15.951-.004 29.484-10.365 34.205-24.73a1.661 1.661 0 0 0-1.053-2.096 1.663 1.663 0 0 0-2.094 1.057c-4.289 13.037-16.572 22.459-31.059 22.455-16.359.004-29.911-12.008-32.309-27.676h55.92z"/><path clip-path="url(#l)" fill="#807F83" d="M201.482 70.467V1.783a1.658 1.658 0 1 1 3.314 0v68.684a1.657 1.657 0 0 1-3.314 0m12.762 1.523a1.65 1.65 0 0 1-.883-2.168l28.977-68.685a1.656 1.656 0 0 1 3.05 0l28.984 68.685a1.654 1.654 0 0 1-.885 2.168 1.654 1.654 0 0 1-2.17-.879l-14.065-33.332h-26.776l-14.061 33.332a1.659 1.659 0 0 1-1.527 1.012c-.216 0-.433-.043-.644-.133m41.613-37.527L243.865 6.047l-11.99 28.416h23.982z"/></svg>