<svg xmlns="http://www.w3.org/2000/svg" xmlns:xlink="http://www.w3.org/1999/xlink" width="400" height="207" viewBox="0 0 400 207" overflow="visible"><path fill="#231F20" d="M389.006 103.028v-4.187h-1.566v-.56h3.763v.56h-1.574v4.187z"/><defs><path id="a" d="M0 0h400v206.945H0z"/></defs><clipPath id="b"><use xlink:href="#a" overflow="visible"/></clipPath><path clip-path="url(#b)" fill="#231F20" d="M391.828 103.028v-4.747h.944l1.122 3.362c.104.308.176.548.226.7.054-.171.138-.424.251-.759l1.139-3.304h.842v4.747h-.603v-3.972l-1.378 3.972h-.569l-1.371-4.038v4.038h-.603z"/><path clip-path="url(#b)" fill="#00A5E8" d="M207.167 103.088c0 56.467-45.777 102.242-102.247 102.242-56.462 0-102.24-45.775-102.24-102.242C2.68 46.616 48.458.842 104.92.842c56.47 0 102.247 45.774 102.247 102.246"/><path clip-path="url(#b)" fill="#231F20" d="M221.646 45.98V22.709h10.466v20.254c0 4.006.415 7.912 5.673 7.912 5.261 0 5.679-3.906 5.679-7.912V22.709h10.459V45.98c0 9.007-5.775 14.005-16.138 14.005-10.674 0-16.139-4.998-16.139-14.005m35.092 8.694l5.053-6.973c1.876 2.234 4.998 4.268 8.589 4.268 2.708 0 4.323-1.145 4.323-3.281 0-2.553-2.344-3.279-6.299-4.478-5.312-1.616-9.995-4.374-9.995-10.671 0-6.924 5.671-11.559 13.69-11.559 5.567 0 9.79 1.717 12.441 4.215l-4.739 6.978c-1.507-1.716-4.061-3.175-7.183-3.175-2.704 0-3.851 1.094-3.851 2.553 0 2.287 2.758 2.911 5.78 3.851 5.931 1.872 10.513 4.581 10.513 11.3 0 7.025-5.046 12.285-14.159 12.285-6.715-.001-11.922-2.866-14.163-5.313m42.384-31.965h11.506l13.586 36.548h-10.879l-1.721-5.259H297.82l-1.666 5.259h-10.619l13.587-36.548zm9.84 22.959l-2.812-8.799c-.574-1.717-1.039-3.905-1.252-5.468h-.311c-.208 1.562-.677 3.751-1.246 5.468l-2.812 8.799h8.433zm-78.15 29.359h-9.008v-8.486h28.471v8.486h-9.001v28.061h-10.462zm20.198 9.838c0-9.004 6.458-19.053 20.045-19.053 13.644 0 20.103 10.049 20.103 19.053 0 8.955-6.459 18.95-20.103 18.95-13.587 0-20.045-9.995-20.045-18.95m29.364 0c0-6.558-4.264-9.941-9.37-9.941-4.997 0-9.267 3.384-9.267 9.941 0 6.508 4.27 9.843 9.267 9.843 5.106 0 9.37-3.335 9.37-9.843m14.532-18.324h13.482c12.913 0 20.304 6.871 20.304 18.272 0 11.196-7.602 18.274-20.304 18.274h-13.482V66.541zm10.465 28.113h2.239c6.714 0 10.305-3.229 10.305-9.841 0-6.611-3.591-9.837-10.305-9.837h-2.239v19.678zm35.455-28.113h11.506l13.587 36.547h-10.874l-1.721-5.257h-13.8l-1.666 5.257H327.24l13.586-36.547zm9.845 22.96l-2.814-8.798c-.573-1.721-1.041-3.906-1.25-5.471h-.31c-.21 1.564-.678 3.75-1.251 5.471l-2.813 8.798h8.438zm21.71.571L358.74 66.541h11.455l4.944 9.005c1.04 1.926 2.502 4.844 2.812 6.769h.208c.31-1.925 1.771-4.843 2.813-6.769l4.948-9.005h11.137l-13.641 23.531v13.016h-11.037V90.072zm-139.689 37.119l-.902-2.117h-3.655l-.898 2.117h-1.628l4.267-9.385h.227l4.259 9.385h-1.67zm-2.727-6.464l-1.315 3.096h2.629l-1.314-3.096zm90.142 6.619c-2.93 0-4.988-2.02-4.988-4.775 0-2.742 2.088-4.785 4.988-4.785 1.147 0 2.197.367 2.984.844l-.548 1.342c-.732-.42-1.645-.709-2.461-.709-2.035 0-3.27 1.355-3.27 3.309 0 1.947 1.273 3.297 3.308 3.297.819 0 1.782-.287 2.523-.734l.48 1.344a5.829 5.829 0 0 1-3.016.867m9.397 0c-2.675 0-4.642-2.033-4.642-4.773 0-2.754 2.052-4.787 4.729-4.787 2.68 0 4.633 2.033 4.633 4.787.001 2.739-2.039 4.773-4.72 4.773m.05-8.145c-1.766 0-2.992 1.436-2.992 3.371 0 1.918 1.227 3.369 2.992 3.369 1.756 0 2.98-1.451 2.98-3.369 0-1.935-1.224-3.371-2.98-3.371m14.587 7.992l-.129-5.547-2.913 4.424h-.195l-2.942-4.433-.1 5.556h-1.556l.393-9.373.239-.019 4.106 6.137 4.006-6.137.255.019.388 9.373zm7.129-2.978c-.302 0-.619-.023-.917-.039v3.02h-1.583v-9.17c.817-.105 1.587-.15 2.346-.15 2.542 0 3.841 1.387 3.841 3.117-.001 1.884-1.323 3.222-3.687 3.222m.116-4.887c-.354 0-.712.023-1.033.074v3.387c.31.021.604.047.879.047 1.428 0 2.084-.744 2.084-1.795-.001-.908-.641-1.713-1.93-1.713m29.957 3.975v3.888h-1.582v-3.898l-3.258-5.355h1.809l2.268 3.914 2.252-3.914h1.767zm-18.677 3.888l-.896-2.117h-3.661l-.896 2.117h-1.633l4.27-9.381h.227l4.259 9.381h-1.67zm-2.729-6.464l-1.31 3.096h2.625l-1.315-3.096zm14.173 6.642l-5.798-6.107v5.931h-1.582v-9.386l.255-.047 5.726 6.025v-5.849h1.574v9.4zm-125.319-5.074v4.037c-.984.648-2.06 1.014-3.449 1.014-2.638 0-4.912-1.92-4.912-4.773 0-2.881 2.309-4.791 4.912-4.791 1.364 0 2.34.377 3.286.965l-.72 1.26c-.745-.479-1.632-.768-2.487-.768-2.109 0-3.303 1.49-3.303 3.334 0 1.969 1.458 3.373 3.286 3.373.8 0 1.327-.141 1.876-.443v-1.82h-2.164v-1.387h3.675zm8.891 4.896l-.901-2.117h-3.658l-.903 2.117h-1.624l4.265-9.381h.226l4.257 9.381h-1.662zm-2.73-6.464l-1.314 3.096h2.628l-1.314-3.096zm14.163 6.642l-5.792-6.107v5.931h-1.586v-9.386l.26-.047 5.717 6.025v-5.849h1.577v9.4zm10.707 0l-5.797-6.107v5.931h-1.578v-9.386l.252-.047 5.722 6.025v-5.849h1.576v9.4zm3.332-.176v-9.257h5.646v1.437h-4.068v2.424h3.675v1.392h-3.675v2.565h4.068v1.439zm12.595-7.816v7.818h-1.583v-7.818h-2.942v-1.441h7.455v1.441zm9.35 0v7.818h-1.582v-7.818h-2.943v-1.441h7.454v1.441z"/></svg>