<svg xmlns="http://www.w3.org/2000/svg" width="190" height="50" viewBox="0 0 190 50"><path d="M0 1.465h16.745v.482h-4.113L25.126 36.16 35.677 1.947h-4.148v-.482h9.035v.482h-3.992L21.702 49.24 4.405 1.947H0v-.482zM112.744.639v16.436h-.379c-.705-3.234-1.704-6.385-3.441-9.24-2.066-3.34-5.353-7.092-9.639-7.092-9.844 0-10.739 17.641-10.739 24.371 0 6.023.481 12.236 2.667 17.881 1.532 3.957 3.751 5.902 7.865 5.902 3.27 0 6.746-1.652 8.484-4.492.447-.74.482-1.564.482-2.41V29.293h-4.304v-.498h15.748v.498h-3.683v19.002h-.327c-.93-1.551-2.393-2.566-4.268-2.566-1.36 0-2.687.482-3.873 1.137l-1.067.586c-2.409 1.066-4.716 1.84-7.383 1.84-12.22 0-18.725-13.027-18.725-23.834 0-7.9 3.012-16.35 9.414-21.289C92.45 1.948 95.927.314 99.627.314c1.445 0 2.874.447 4.216.98l.981.379c1.118.414 2.341.809 3.545.809 1.498 0 2.841-.98 3.993-1.842h.382V.639zm4.697.826h16.798v.482h-4.457v36.469c0 5.713 5.886 9.189 11.031 9.189 5.541 0 10.206-3.855 10.206-9.518V1.947h-5.267v-.482h43.353v16.918h-.327c-.499-4.475-1.359-9.07-4.44-12.562-3.115-3.529-7.349-3.873-11.703-3.873h-4.698v21.754c.965.104 1.945.172 2.926.172 5.903 0 7.436-4.062 7.693-9.088h.431v19.086h-.431c-.739-4.561-2.754-9.447-8.106-9.447a31.1 31.1 0 0 0-2.513.121v23.268h7.039c3.648 0 7.28-1.584 9.862-4.131 2.202-2.17 3.734-4.99 4.268-8.037.292-1.703.431-3.441.517-5.162H190v17.812h-33.886v-.482h3.94V1.947h-8.33v36.277c0 7.504-7.125 10.826-13.803 10.826-7.556 0-15.885-3.664-15.885-12.305V1.947h-4.596v-.482h.001zM70.234 7.799C66.844 3.6 61.56.449 56.053.449c-5.989 0-11.376 3.322-14.956 7.969-3.631 4.734-5.387 10.705-5.387 16.643 0 6.18 1.911 12.426 5.834 17.262 3.442 4.25 8.76 7.365 14.319 7.365 5.937 0 11.29-3.373 14.835-7.984 3.614-4.732 5.386-10.705 5.386-16.625.002-6.179-1.942-12.444-5.85-17.28zM55.898 48.982c-9.259 0-11.686-17.072-11.686-23.922s2.41-23.906 11.686-23.906c9.242 0 11.686 17.072 11.686 23.906 0 6.833-2.444 23.922-11.686 23.922z" fill-rule="evenodd" clip-rule="evenodd"/></svg>