<svg xmlns="http://www.w3.org/2000/svg" xmlns:xlink="http://www.w3.org/1999/xlink" width="187" height="86" viewBox="0 0 187 86" overflow="visible"><defs><path id="a" d="M0 0h187.086v85.572H0z"/></defs><clipPath id="b"><use xlink:href="#a" overflow="visible"/></clipPath><path clip-path="url(#b)" fill-rule="evenodd" clip-rule="evenodd" d="M71.265 0l-8.176 85.572H40.606l-5.178-44.694-5.041 44.694H8.448L0 0h17.441l3.952 59.001c.682-14.99 2.453-34.747 4.906-59.001h18.667l3.816 60.908C49.735 41.15 51.37 20.848 53.551 0h17.714z"/><path clip-path="url(#b)" fill-rule="evenodd" clip-rule="evenodd" d="M142.121 0l-8.177 85.572h-22.211c-2.043-12.672-3.813-27.662-5.45-44.694l-5.042 44.694H79.032L71.128 0H88.57l3.816 59.001C92.931 45.238 94.43 25.617 97.154 0h18.396l4.088 60.908c1.226-22.755 2.998-42.922 5.042-60.908h17.441zm3.405 0v85.57h22.483l9.811-.817c2.045-.545 3.815-1.361 5.18-2.998 1.635-1.361 2.588-3.406 3.269-5.857l.818-15.67V30.385l-.681-16.351c-.138-2.725-1.363-5.178-2.861-7.494-1.636-2.18-3.952-3.815-7.086-4.906L166.239.272 145.526 0zm20.713 14.988l1.361.409 1.364 2.589.271 7.494v33.111l-.953 10.492-2.044 1.5-2.727.271V14.716l2.728.272z"/></svg>