<svg xmlns="http://www.w3.org/2000/svg" width="190" height="87" viewBox="0 0 190 87"><g fill-rule="evenodd" clip-rule="evenodd"><path d="M72.375.048l-8.304 86.904H41.238L35.98 41.563l-5.12 45.389H8.58L0 .048h17.712l4.014 59.922c.693-15.225 2.491-35.289 4.983-59.922h18.958l3.875 61.857c.967-20.066 2.628-40.686 4.843-61.857h17.99z"/><path d="M144.334.048l-8.304 86.904h-22.557c-2.075-12.869-3.873-28.092-5.535-45.389l-5.121 45.389H80.262L72.236.048h17.713l3.875 59.922C94.378 45.991 95.9 26.064 98.667.048h18.682l4.152 61.857c1.244-23.111 3.044-43.59 5.12-61.857h17.713zm3.458 0V86.95h22.834l9.963-.828c2.077-.553 3.875-1.383 5.261-3.045 1.66-1.383 2.628-3.459 3.319-5.949L190 61.214V30.905l-.691-16.604c-.14-2.77-1.385-5.26-2.905-7.611-1.662-2.213-4.014-3.875-7.196-4.982L168.829.325 147.792.048zm21.036 15.223l1.382.416 1.386 2.629.275 7.609v33.627l-.968 10.656-2.075 1.523-2.77.275V14.995l2.77.276z"/></g></svg>