<?xml version="1.0" encoding="utf-8"?>
<!-- Generator: Adobe Illustrator 16.0.0, SVG Export Plug-In . SVG Version: 6.00 Build 0)  -->
<!DOCTYPE svg PUBLIC "-//W3C//DTD SVG 1.1//EN" "http://www.w3.org/Graphics/SVG/1.1/DTD/svg11.dtd">
<svg version="1.1" id="Layer_1" xmlns="http://www.w3.org/2000/svg" xmlns:xlink="http://www.w3.org/1999/xlink" x="0px" y="0px"
	 width="190px" height="87px" viewBox="0 0 190 87" enable-background="new 0 0 190 87" xml:space="preserve">
<g>
	<path fill-rule="evenodd" clip-rule="evenodd" d="M72.375,0.048l-8.304,86.904H41.238L35.98,41.563l-5.12,45.389H8.58L0,0.048
		h17.712l4.014,59.922c0.693-15.225,2.491-35.289,4.983-59.922h18.958l3.875,61.857c0.967-20.066,2.628-40.686,4.843-61.857H72.375z
		"/>
	<path fill-rule="evenodd" clip-rule="evenodd" d="M144.334,0.048l-8.304,86.904h-22.557c-2.075-12.869-3.873-28.092-5.535-45.389
		l-5.121,45.389H80.262L72.236,0.048h17.713l3.875,59.922c0.554-13.979,2.076-33.906,4.843-59.922h18.682l4.152,61.857
		c1.244-23.111,3.044-43.59,5.12-61.857H144.334z"/>
	<path fill-rule="evenodd" clip-rule="evenodd" d="M147.792,0.048V86.95h22.834l9.963-0.828c2.077-0.553,3.875-1.383,5.261-3.045
		c1.66-1.383,2.628-3.459,3.319-5.949L190,61.214V30.905l-0.691-16.604c-0.14-2.77-1.385-5.26-2.905-7.611
		c-1.662-2.213-4.014-3.875-7.196-4.982l-10.379-1.383L147.792,0.048z M168.828,15.271l1.382,0.416l1.386,2.629l0.275,7.609v33.627
		l-0.968,10.656l-2.075,1.523l-2.77,0.275V14.995L168.828,15.271z"/>
</g>
</svg>
