<?xml version="1.0" encoding="utf-8"?>
<!DOCTYPE svg PUBLIC "-//W3C//DTD SVG 1.1//EN" "http://www.w3.org/Graphics/SVG/1.1/DTD/svg11.dtd">
<svg version="1.1" xmlns="http://www.w3.org/2000/svg" xmlns:xlink="http://www.w3.org/1999/xlink" x="0px" y="0px" width="24px"
	 height="24px" viewBox="0 0 24 24" enable-background="new 0 0 24 24" xml:space="preserve">
<g id="Compound">
	<path d="M22.997,6h-5.771c-0.479-2.364-1.778-6-5.226-6C8.553,0,7.254,3.636,6.774,6h-5.77c0,0-0.197,17.227,2.355,17.812
		C5.914,24.398,9.643,23,12,23c2.356,0,6.086,1.443,8.641,0.857C23.192,23.271,22.997,6,22.997,6z M7,9.25
		C6.311,9.25,5.75,8.689,5.75,8c0-0.558,0.374-1.015,0.88-1.175c-0.033,0.224-0.06,0.423-0.078,0.59C6.373,7.552,6.25,7.758,6.25,8
		c0,0.414,0.336,0.75,0.75,0.75S7.75,8.414,7.75,8c0-0.193-0.079-0.366-0.199-0.5c0.019-0.16,0.042-0.342,0.076-0.558
		C7.992,7.161,8.25,7.544,8.25,8C8.25,8.689,7.689,9.25,7,9.25z M7.805,6c0.455-2.076,1.559-5,4.196-5c2.632,0,3.737,2.924,4.192,5
		H7.805z M17,9.25c-0.689,0-1.25-0.561-1.25-1.25c0-0.456,0.258-0.838,0.623-1.057c0.033,0.216,0.058,0.398,0.076,0.558
		C16.328,7.634,16.25,7.807,16.25,8c0,0.414,0.337,0.75,0.75,0.75S17.75,8.414,17.75,8c0-0.242-0.123-0.448-0.302-0.585
		c-0.019-0.167-0.044-0.366-0.078-0.59C17.876,6.985,18.25,7.442,18.25,8C18.25,8.689,17.689,9.25,17,9.25z"/>
</g>
</svg>
