<?xml version="1.0" encoding="utf-8"?>
<!-- Generator: Adobe Illustrator 16.0.0, SVG Export Plug-In . SVG Version: 6.00 Build 0)  -->
<!DOCTYPE svg PUBLIC "-//W3C//DTD SVG 1.1//EN" "http://www.w3.org/Graphics/SVG/1.1/DTD/svg11.dtd">
<svg version="1.1" id="Layer_1" xmlns="http://www.w3.org/2000/svg" xmlns:xlink="http://www.w3.org/1999/xlink" x="0px" y="0px"
	 width="190px" height="45px" viewBox="0 0 190 45" enable-background="new 0 0 190 45" xml:space="preserve">
<g>
	<path fill-rule="evenodd" clip-rule="evenodd" fill="#DF463B" d="M0,0.775h6.888v35.016H0V0.775L0,0.775z M25.749,8.401
		c1.764-0.212,3.562-0.166,5.331,0c1.745,0.163,3.5,0.869,5.001,1.641c1.534,0.787,2.57,1.679,3.445,2.87
		c0.931,1.27,1.539,2.607,1.886,4.101c0.2,0.861,0.4,1.738,0.41,2.623l0.164,16.155h-6.396V22.096
		c-0.246-1.312-0.535-2.617-0.738-3.936c-0.125-0.814-0.39-1.76-1.23-2.379c-0.738-0.543-1.576-0.985-2.46-1.229
		c-1.222-0.338-2.504-0.479-3.772-0.492c-1.373-0.015-2.754,0.138-4.1,0.41c-1.102,0.222-2.239,0.483-3.199,1.065l-2.296,1.394
		l-1.066,0.657v18.205h-6.314V8.812h6.314v2.378c0.902-0.465,1.737-1.094,2.707-1.395C21.494,9.159,23.609,8.657,25.749,8.401
		L25.749,8.401z"/>
	<path fill-rule="evenodd" clip-rule="evenodd" fill="#DF463B" d="M161.709,19.883h20.911c-0.191-0.493-0.263-1.052-0.574-1.477
		c-0.524-0.718-1.174-1.354-1.885-1.887c-0.833-0.624-1.736-1.184-2.707-1.559c-1.101-0.424-2.272-0.688-3.444-0.818
		c-1.276-0.145-2.576-0.134-3.854,0c-1.115,0.114-2.229,0.349-3.28,0.737c-0.964,0.355-1.897,0.843-2.707,1.476
		c-0.716,0.561-1.434,1.218-1.804,2.051L161.709,19.883L161.709,19.883z M143.668,8.812l-19.927,35.836h-7.134l5.166-9.185
		l-14.35-26.651h7.38l10.824,20.255l10.907-20.255H143.668L143.668,8.812z M145.473,0.775h6.56v35.097h-6.56V0.775L145.473,0.775z
		 M165.235,9.632c2.248-0.558,4.573-0.931,6.888-0.902c2.297,0.027,4.571,0.543,6.807,1.065c2.096,0.491,3.716,1.611,5.167,2.87
		c1.666,1.447,2.86,3.121,3.69,5.085c0.973,2.3,1.804,4.592,2.214,7.217h-28.291c0.41,0.983,0.875,1.972,1.476,2.624
		c0.724,0.783,1.566,1.466,2.459,2.049c0.922,0.601,2.047,0.929,3.035,1.067c1.145,0.16,2.288,0.408,3.443,0.408
		c1.782,0,3.566-0.164,5.331-0.408c1.195-0.167,2.381-0.44,3.526-0.821c0.916-0.306,1.783-0.754,2.624-1.229l1.886-1.065l3.28,4.346
		c-0.984,0.656-2.089,1.315-3.116,1.887c-1.193,0.662-2.354,1.226-3.608,1.557c-1.43,0.379-2.875,0.744-4.346,0.902
		c-1.849,0.198-3.716,0.141-5.577,0.165c-2.623,0.031-4.898-0.477-7.297-1.231c-2.03-0.64-3.788-1.458-5.331-2.871
		c-1.327-1.212-2.474-2.618-3.116-4.262c-0.669-1.718-1.066-3.691-1.066-5.414c0.083-2.049,0.508-4.011,1.313-5.74
		c0.835-1.796,1.898-3.276,3.28-4.427C161.48,11.188,163.271,10.119,165.235,9.632L165.235,9.632z M46.905,10.78
		c0.172,1.721,0.735,3.286,1.886,4.592c1.313,1.487,2.808,2.404,4.51,3.034c2.071,0.765,4.096,1.437,6.15,1.639
		c1.828,0.181,3.663,0.28,5.495,0.411c1.995,0.143,4.006,0.129,5.986,0.41c1.503,0.213,2.967,0.652,4.428,1.065
		c1.247,0.353,2.062,1.222,2.706,2.214c0.421,0.648,0.514,1.456,0.246,2.297c-0.308,0.966-0.779,1.854-1.477,2.378
		c-0.945,0.708-1.854,1.341-3.115,1.641c-1.399,0.331-2.828,0.587-4.264,0.654c-2.049,0.098-4.109,0.036-6.151-0.162
		c-2.151-0.211-4.288-0.59-6.396-1.067c-1.645-0.371-3.384-0.621-4.838-1.476l-3.772-2.214l-3.28,5.33
		c1.586,0.766,3.131,1.62,4.756,2.297c1.66,0.689,3.336,1.38,5.084,1.803c1.878,0.456,3.815,0.652,5.74,0.821
		c2.181,0.188,4.375,0.347,6.561,0.246c2.503-0.119,5.002-0.429,7.462-0.902c2.09-0.403,3.876-1.355,5.658-2.379
		c1.5-0.862,2.589-2.199,3.526-3.689c0.873-1.389,1.175-2.866,1.066-4.511c-0.136-2.047-0.929-3.748-2.296-5.329
		c-1.257-1.454-2.645-2.71-4.674-3.363c-2.139-0.689-4.34-1.207-6.561-1.559c-2.112-0.333-4.266-0.307-6.396-0.491
		c-1.014-0.088-2.024-0.21-3.034-0.327c-1.313-0.155-2.638-0.242-3.936-0.493c-1.25-0.241-2.256-0.685-3.117-1.394
		c-0.701-0.578-1.891-0.98-1.968-1.887c-0.072-0.851,0.988-1.416,1.64-1.968c0.788-0.666,1.662-1.267,2.624-1.64
		c1.255-0.486,2.606-0.692,3.936-0.903c1.274-0.2,2.565-0.327,3.854-0.327c1.78,0,3.568,0.075,5.33,0.327
		c1.477,0.213,2.922,0.625,4.347,1.067c1.313,0.407,2.644,0.821,3.854,1.476l3.034,1.641l3.28-4.593
		c-1.23-0.655-2.421-1.393-3.69-1.969c-1.387-0.629-2.798-1.226-4.265-1.64c-1.743-0.491-3.531-0.843-5.33-1.065
		c-2.174-0.271-4.37-0.475-6.56-0.411c-2.419,0.072-4.824,0.454-7.217,0.821c-2.066,0.316-4.155,0.881-5.904,1.887
		c-1.538,0.883-2.927,2.011-3.854,3.443C47.093,7.872,46.75,9.221,46.905,10.78L46.905,10.78z M85.693,8.812h4.51V1.841h6.561v6.971
		h8.528v5.331h-8.528c0,5.192-0.678,10.431,0,15.58c0.11,0.835,1.226,0.841,1.968,0.984c0.816,0.156,1.629,0.379,2.46,0.408
		c0.634,0.026,1.262-0.137,1.886-0.246c0.471-0.081,0.923-0.248,1.394-0.327l0.492-0.081l0.328-0.329h0.246l1.395,5.494
		l-0.821,0.165c-0.656,0.137-1.308,0.287-1.968,0.41c-0.817,0.15-1.635,0.306-2.459,0.408c-0.898,0.115-1.803,0.304-2.707,0.246
		c-1.247-0.079-2.478-0.356-3.69-0.654c-1.007-0.25-1.96-0.754-2.624-1.559c-0.627-0.76-1.513-1.484-1.641-2.46l-0.492-3.772
		l-0.329-14.268h-4.51V8.812L85.693,8.812z"/>
</g>
</svg>
