<?xml version="1.0" encoding="utf-8"?>
<!-- Generator: Adobe Illustrator 16.0.4, SVG Export Plug-In . SVG Version: 6.00 Build 0)  -->
<!DOCTYPE svg PUBLIC "-//W3C//DTD SVG 1.1//EN" "http://www.w3.org/Graphics/SVG/1.1/DTD/svg11.dtd">
<svg version="1.1" id="Layer_1" xmlns="http://www.w3.org/2000/svg" xmlns:xlink="http://www.w3.org/1999/xlink" x="0px" y="0px"
	 width="85px" height="85px" viewBox="85.5 85.5 85 85" enable-background="new 85.5 85.5 85 85" xml:space="preserve">
<path fill="#EDEDED" d="M159.991,92.097c-4.261-10.193-17.796-6.768-24.814-1.754c-6.601,4.762-10.443,12.282-12.198,20.219
	c-1.003-5.598-3.008-10.778-8.605-13.368c-3.593-1.67-6.935-0.835-9.692,1.253c-5.598,2.423-9.19,11.112-9.942,16.375
	c-2.256,14.705,6.517,28.657,17.044,39.936c3.509,5.348,8.021,10.109,13.535,13.284c-0.334,1.003,1.086,1.755,1.838,1.003
	c1.086,0.501,2.256,1.003,3.426,1.42c0.752,0.251,1.086-0.919,0.334-1.169c-1.003-0.418-1.922-0.836-2.841-1.337
	c0-0.084,0.083-0.167,0.083-0.251s0-0.167,0-0.25c3.76-6.267,6.099-13.284,9.776-19.551c4.261-7.186,9.106-13.953,13.534-21.055
	C157.651,117.078,164.92,103.793,159.991,92.097z M105.099,100.535c1.17-0.418,2.423-0.585,3.844-0.334
	c-6.768,1.253-8.355,11.279-8.689,17.128c0,0.501,0,1.002-0.083,1.503C99.669,112.984,100.337,104.462,105.099,100.535z
	 M151.386,88.671c1.587,0.334,2.59,1.169,3.258,2.339c-4.345-2.005-11.613,1.086-15.456,3.509
	c-7.52,4.762-12.95,13.117-14.621,22.057c-0.083-0.251-0.167-0.585-0.251-0.836c0.084-0.584,0.167-1.169,0.251-1.838
	c2.088-8.856,8.188-16.876,15.54-21.89C143.281,89.841,147.459,87.919,151.386,88.671z M121.976,125.015
	c0.251,1.337,2.256,0.752,2.089-0.585c0,0,0,0,0-0.083c0.083,0.334,0.083,0.668,0.167,1.002c0.251,1.17,2.172,0.919,2.089-0.25
	c-1.253-11.614,5.096-23.143,14.872-29.242c3.175-2.005,10.276-5.347,13.618-2.172c0.334,0.334,0.585,0.668,0.752,1.002
	c0.168,2.841-0.418,5.932-0.919,7.854c-2.59,11.696-10.192,21.973-15.874,32.333c-4.512,8.104-9.44,17.211-11.697,26.485
	c-0.501,1.17-1.003,2.423-1.504,3.593c-0.083-0.084-0.251-0.167-0.334-0.251c-1.503-1.337-3.007-2.674-4.511-4.094
	c-5.097-5.013-9.441-10.777-12.867-17.128c-2.841-6.851-4.679-14.119-5.347-20.72c-0.668-5.932-0.584-18.631,6.768-20.636
	c1.921-0.501,3.676,0,5.264,1.086C119.804,108.472,120.723,118.582,121.976,125.015z M119.219,104.545
	c-1.17-1.337-2.506-2.506-4.01-3.258c-1.003-0.919-2.089-1.755-3.426-2.423c-0.25-0.167-0.585-0.251-0.835-0.418
	C115.125,98.363,117.632,100.953,119.219,104.545z M98.081,110.394c-1.253,10.527,1.337,21.305,6.183,31.08
	c-3.509-5.514-6.099-11.446-7.269-17.879C96.41,120.419,96.661,115.156,98.081,110.394z M145.119,132.701
	c-1.17,1.755-2.423,3.593-3.593,5.348c3.175-5.766,6.434-11.447,9.357-17.295c3.51-6.935,8.438-16.543,7.102-24.563
	c-0.083-0.501-0.167-1.002-0.334-1.42c-0.084-1.336-0.418-2.59-0.919-3.843c1.671,2.339,2.423,5.515,2.59,8.355
	C160.074,111.396,151.553,123.093,145.119,132.701z"/>
</svg>
