<?xml version="1.0" encoding="utf-8"?>
<!-- Generator: Adobe Illustrator 16.0.0, SVG Export Plug-In . SVG Version: 6.00 Build 0)  -->
<!DOCTYPE svg PUBLIC "-//W3C//DTD SVG 1.1//EN" "http://www.w3.org/Graphics/SVG/1.1/DTD/svg11.dtd">
<svg version="1.1" id="Layer_1" xmlns="http://www.w3.org/2000/svg" xmlns:xlink="http://www.w3.org/1999/xlink" x="0px" y="0px"
	 width="190px" height="50px" viewBox="0 0 190 50" enable-background="new 0 0 190 50" xml:space="preserve">
<g>
	<polygon fill-rule="evenodd" clip-rule="evenodd" points="0,1.465 16.745,1.465 16.745,1.947 12.632,1.947 25.126,36.16 
		35.677,1.947 31.529,1.947 31.529,1.465 40.564,1.465 40.564,1.947 36.572,1.947 21.702,49.24 4.405,1.947 0,1.947 0,1.465 	"/>
	<path fill-rule="evenodd" clip-rule="evenodd" d="M112.744,0.639v16.436h-0.379c-0.705-3.234-1.704-6.385-3.441-9.24
		c-2.066-3.34-5.353-7.092-9.639-7.092c-9.844,0-10.739,17.641-10.739,24.371c0,6.023,0.481,12.236,2.667,17.881
		c1.532,3.957,3.751,5.902,7.865,5.902c3.27,0,6.746-1.652,8.484-4.492c0.447-0.74,0.482-1.564,0.482-2.41v-0.119V29.293h-4.304
		v-0.498h15.748v0.498h-3.683v19.002h-0.327c-0.93-1.551-2.393-2.566-4.268-2.566c-1.36,0-2.687,0.482-3.873,1.137l-1.067,0.586
		c-2.409,1.066-4.716,1.84-7.383,1.84c-12.22,0-18.725-13.027-18.725-23.834c0-7.9,3.012-16.35,9.414-21.289
		c2.874-2.221,6.351-3.855,10.051-3.855c1.445,0,2.874,0.447,4.216,0.98l0.981,0.379c1.118,0.414,2.341,0.809,3.545,0.809
		c1.498,0,2.841-0.98,3.993-1.842H112.744L112.744,0.639z"/>
	<path fill-rule="evenodd" clip-rule="evenodd" d="M117.441,1.465h16.798v0.482h-4.457v36.469c0,5.713,5.886,9.189,11.031,9.189
		c5.541,0,10.206-3.855,10.206-9.518V1.947h-5.267V1.465h43.353v16.918h-0.327c-0.499-4.475-1.359-9.07-4.44-12.562
		c-3.115-3.529-7.349-3.873-11.703-3.873h-4.698v21.754c0.965,0.104,1.945,0.172,2.926,0.172c5.903,0,7.436-4.062,7.693-9.088h0.431
		v19.086h-0.431c-0.739-4.561-2.754-9.447-8.106-9.447c-0.843,0-1.669,0.053-2.513,0.121v23.268h7.039
		c3.648,0,7.28-1.584,9.862-4.131c2.202-2.17,3.734-4.99,4.268-8.037c0.292-1.703,0.431-3.441,0.517-5.162H190v17.812h-33.886
		v-0.482h3.94V1.947h-8.33v36.277c0,7.504-7.125,10.826-13.803,10.826c-7.556,0-15.885-3.664-15.885-12.305V1.947h-4.596V1.465
		L117.441,1.465z"/>
	<path fill-rule="evenodd" clip-rule="evenodd" d="M70.234,7.799c-3.39-4.199-8.674-7.35-14.181-7.35
		c-5.989,0-11.376,3.322-14.956,7.969c-3.631,4.734-5.387,10.705-5.387,16.643c0,6.18,1.911,12.426,5.834,17.262
		c3.442,4.25,8.76,7.365,14.319,7.365c5.937,0,11.29-3.373,14.835-7.984c3.614-4.732,5.386-10.705,5.386-16.625
		C76.086,18.9,74.142,12.635,70.234,7.799z M55.898,48.982c-9.259,0-11.686-17.072-11.686-23.922S46.622,1.154,55.898,1.154
		c9.242,0,11.686,17.072,11.686,23.906C67.584,31.893,65.14,48.982,55.898,48.982z"/>
</g>
</svg>
